<?xml version="1.0" encoding="UTF-8"?>
<svg xmlns="http://www.w3.org/2000/svg" xmlns:xlink="http://www.w3.org/1999/xlink" width="px" height="px" viewBox="0 0 18 18" version="1.1">
<defs>
<filter id="alpha" filterUnits="objectBoundingBox" x="0%" y="0%" width="100%" height="100%">
  <feColorMatrix type="matrix" in="SourceGraphic" values="0 0 0 0 1 0 0 0 0 1 0 0 0 0 1 0 0 0 1 0"/>
</filter>
<mask id="mask0">
  <g filter="url(#alpha)">
<rect x="0" y="0" width="18" height="18" style="fill:rgb(0%,0%,0%);fill-opacity:0.4;stroke:none;"/>
  </g>
</mask>
<clipPath id="clip1">
  <rect x="0" y="0" width="18" height="18"/>
</clipPath>
<g id="surface5" clip-path="url(#clip1)">
<path style=" stroke:none;fill-rule:nonzero;fill:rgb(26.27451%,75.294118%,97.254902%);fill-opacity:1;" d="M 18 9 C 18 13.96875 13.96875 18 9 18 C 4.03125 18 0 13.96875 0 9 C 0 4.03125 4.03125 0 9 0 C 13.96875 0 18 4.03125 18 9 Z M 18 9 "/>
</g>
</defs>
<g id="surface1">
<path style=" stroke:none;fill-rule:nonzero;fill:rgb(1.960784%,50.588235%,98.823529%);fill-opacity:1;" d="M 14.140625 13.902344 L 3.597656 13.902344 C 3.289062 13.902344 3.082031 13.695312 3.082031 13.386719 L 3.082031 5.003906 C 3.082031 4.695312 3.289062 4.488281 3.597656 4.488281 L 14.140625 4.488281 C 14.449219 4.488281 14.652344 4.695312 14.652344 5.003906 L 14.652344 13.386719 C 14.652344 13.644531 14.449219 13.902344 14.140625 13.902344 Z M 4.109375 12.871094 L 13.625 12.871094 L 13.625 5.519531 L 4.109375 5.519531 Z M 4.109375 12.871094 "/>
<path style=" stroke:none;fill-rule:nonzero;fill:rgb(1.960784%,50.588235%,98.823529%);fill-opacity:1;" d="M 12.183594 6.339844 C 11.875 6.339844 11.671875 6.136719 11.671875 5.828125 L 11.671875 4.128906 C 11.671875 3.820312 11.875 3.613281 12.183594 3.613281 C 12.492188 3.613281 12.699219 3.820312 12.699219 4.128906 L 12.699219 5.828125 C 12.699219 6.136719 12.492188 6.339844 12.183594 6.339844 Z M 12.183594 6.339844 "/>
<path style=" stroke:none;fill-rule:nonzero;fill:rgb(1.960784%,50.588235%,98.823529%);fill-opacity:1;" d="M 5.652344 6.339844 C 5.34375 6.339844 5.140625 6.136719 5.140625 5.828125 L 5.140625 4.128906 C 5.140625 3.820312 5.34375 3.613281 5.652344 3.613281 C 5.960938 3.613281 6.167969 3.820312 6.167969 4.128906 L 6.167969 5.828125 C 6.167969 6.136719 5.910156 6.339844 5.652344 6.339844 Z M 5.652344 6.339844 "/>
<path style=" stroke:none;fill-rule:nonzero;fill:rgb(1.960784%,50.588235%,98.823529%);fill-opacity:1;" d="M 14.140625 7.988281 L 3.699219 7.988281 C 3.542969 7.988281 3.441406 7.882812 3.441406 7.730469 C 3.441406 7.574219 3.542969 7.472656 3.699219 7.472656 L 14.140625 7.472656 C 14.292969 7.472656 14.394531 7.574219 14.394531 7.730469 C 14.394531 7.882812 14.292969 7.988281 14.140625 7.988281 Z M 14.140625 7.988281 "/>
<path style=" stroke:none;fill-rule:nonzero;fill:rgb(1.960784%,50.588235%,98.823529%);fill-opacity:1;" d="M 6.011719 9.066406 L 5.035156 9.066406 L 5.035156 10.042969 L 6.011719 10.042969 Z M 6.011719 9.066406 "/>
<path style=" stroke:none;fill-rule:nonzero;fill:rgb(1.960784%,50.588235%,98.823529%);fill-opacity:1;" d="M 7.710938 9.066406 L 6.734375 9.066406 L 6.734375 10.042969 L 7.710938 10.042969 Z M 7.710938 9.066406 "/>
<path style=" stroke:none;fill-rule:nonzero;fill:rgb(1.960784%,50.588235%,98.823529%);fill-opacity:1;" d="M 9.457031 9.066406 L 8.480469 9.066406 L 8.480469 10.042969 L 9.457031 10.042969 Z M 9.457031 9.066406 "/>
<path style=" stroke:none;fill-rule:nonzero;fill:rgb(1.960784%,50.588235%,98.823529%);fill-opacity:1;" d="M 11.207031 9.066406 L 10.230469 9.066406 L 10.230469 10.042969 L 11.207031 10.042969 Z M 11.207031 9.066406 "/>
<path style=" stroke:none;fill-rule:nonzero;fill:rgb(1.960784%,50.588235%,98.823529%);fill-opacity:1;" d="M 12.90625 9.066406 L 11.925781 9.066406 L 11.925781 10.042969 L 12.90625 10.042969 Z M 12.90625 9.066406 "/>
<path style=" stroke:none;fill-rule:nonzero;fill:rgb(1.960784%,50.588235%,98.823529%);fill-opacity:1;" d="M 6.011719 10.660156 L 5.035156 10.660156 L 5.035156 11.636719 L 6.011719 11.636719 Z M 6.011719 10.660156 "/>
<path style=" stroke:none;fill-rule:nonzero;fill:rgb(1.960784%,50.588235%,98.823529%);fill-opacity:1;" d="M 7.710938 10.660156 L 6.734375 10.660156 L 6.734375 11.636719 L 7.710938 11.636719 Z M 7.710938 10.660156 "/>
<path style=" stroke:none;fill-rule:nonzero;fill:rgb(1.960784%,50.588235%,98.823529%);fill-opacity:1;" d="M 9.457031 10.660156 L 8.480469 10.660156 L 8.480469 11.636719 L 9.457031 11.636719 Z M 9.457031 10.660156 "/>
<path style=" stroke:none;fill-rule:nonzero;fill:rgb(1.960784%,50.588235%,98.823529%);fill-opacity:1;" d="M 11.207031 10.660156 L 10.230469 10.660156 L 10.230469 11.636719 L 11.207031 11.636719 Z M 11.207031 10.660156 "/>
<path style=" stroke:none;fill-rule:nonzero;fill:rgb(1.960784%,50.588235%,98.823529%);fill-opacity:1;" d="M 12.90625 10.660156 L 11.925781 10.660156 L 11.925781 11.636719 L 12.90625 11.636719 Z M 12.90625 10.660156 "/>
<use xlink:href="#surface5" mask="url(#mask0)"/>
</g>
</svg>
