<?xml version="1.0" encoding="UTF-8"?>
<svg xmlns="http://www.w3.org/2000/svg" xmlns:xlink="http://www.w3.org/1999/xlink" width="px" height="px" viewBox="0 0 36 36" version="1.1">
<g id="surface1">
<path style=" stroke:none;fill-rule:nonzero;fill:rgb(38.431373%,80.784314%,100%);fill-opacity:1;" d="M 35.492188 23.921875 C 35.492188 29.671875 30.832031 34.332031 25.082031 34.332031 C 19.335938 34.332031 14.675781 29.671875 14.675781 23.921875 C 14.675781 18.175781 19.335938 13.515625 25.082031 13.515625 C 30.832031 13.515625 35.492188 18.175781 35.492188 23.921875 Z M 35.492188 23.921875 "/>
<path style="fill:none;stroke-width:2;stroke-linecap:butt;stroke-linejoin:miter;stroke:rgb(1.960784%,72.54902%,98.823529%);stroke-opacity:1;stroke-miterlimit:4;" d="M 35.899783 29.196804 C 35.899783 39.967203 27.168066 48.69892 16.397667 48.69892 C 5.627268 48.69892 -3.096756 39.967203 -3.096756 29.196804 C -3.096756 18.434098 5.627268 9.702381 16.397667 9.702381 C 27.168066 9.702381 35.899783 18.434098 35.899783 29.196804 Z M 35.899783 29.196804 " transform="matrix(0.507757,0,0,0.507757,16.755994,9.096982)"/>
<path style="fill:none;stroke-width:2;stroke-linecap:round;stroke-linejoin:round;stroke:rgb(1.960784%,50.588235%,98.823529%);stroke-opacity:1;stroke-miterlimit:4;" d="M 290.002604 88.103184 L 290.002604 60.100146 C 290.002604 56.999809 292.502875 54.499538 295.603212 54.499538 L 317.897938 54.499538 C 320.998275 54.499538 323.498546 56.999809 323.498546 60.100146 L 323.498546 99.196695 C 323.498546 102.297032 320.998275 104.797303 317.897938 104.797303 L 295.603212 104.797303 C 292.502875 104.797303 290.002604 102.297032 290.002604 99.196695 C 290.002604 97.696533 291.202734 96.396391 292.802908 96.396391 L 315.097635 96.396391 " transform="matrix(0.507757,0,0,0.507757,-135.06347,-26.953794)"/>
<path style=" stroke:none;fill-rule:nonzero;fill:rgb(1.960784%,50.588235%,98.823529%);fill-opacity:1;" d="M 14.316406 35.136719 C 15.28125 34.476562 15.484375 33.15625 14.824219 32.191406 C 14.824219 32.191406 14.773438 32.140625 14.773438 32.140625 L 9.035156 23.96875 L 8.171875 24.578125 L 13.910156 32.75 C 14.265625 33.15625 14.214844 33.765625 13.808594 34.121094 C 13.402344 34.476562 12.792969 34.425781 12.4375 34.019531 C 12.386719 33.96875 12.335938 33.917969 12.285156 33.816406 L 6.546875 25.695312 L 5.683594 26.304688 L 11.421875 34.476562 C 12.03125 35.441406 13.300781 35.746094 14.316406 35.136719 Z M 14.316406 35.136719 "/>
<path style=" stroke:none;fill-rule:nonzero;fill:rgb(1.960784%,50.588235%,98.823529%);fill-opacity:1;" d="M 2.4375 27.683594 L 10.613281 21.945312 C 11.019531 21.691406 11.121094 21.132812 10.867188 20.726562 L 9.089844 18.1875 C 8.835938 17.78125 8.277344 17.730469 7.871094 17.984375 L 1.625 22.402344 C 1.066406 22.808594 0.710938 23.46875 0.710938 24.179688 C 0.863281 27.074219 0.761719 27.429688 1.371094 27.734375 C 1.726562 27.9375 2.132812 27.886719 2.4375 27.683594 Z M 1.828125 26.769531 L 2.132812 27.226562 L 1.828125 26.769531 C 1.828125 24.636719 3.960938 26.769531 1.828125 26.769531 Z M 9.800781 21.183594 L 1.929688 26.71875 C 1.777344 24.027344 1.625 23.722656 2.234375 23.316406 L 8.328125 19.050781 Z M 9.800781 21.183594 "/>
<path style=" stroke:none;fill-rule:nonzero;fill:rgb(1.960784%,50.588235%,98.823529%);fill-opacity:1;" d="M 2.121094 21.21875 L 2.984375 20.609375 C 2.324219 19.644531 3.898438 18.527344 4.609375 19.492188 L 5.472656 18.882812 C 4 16.699219 0.597656 19.085938 2.121094 21.21875 Z M 2.121094 21.21875 "/>
</g>
</svg>
