<?xml version="1.0" encoding="UTF-8"?>
<svg xmlns="http://www.w3.org/2000/svg" xmlns:xlink="http://www.w3.org/1999/xlink" width="px" height="px" viewBox="0 0 36 36" version="1.1">
<g id="surface1">
<path style=" stroke:none;fill-rule:nonzero;fill:rgb(100%,92.941176%,77.647059%);fill-opacity:1;" d="M 35.492188 23.941406 C 35.492188 29.691406 30.832031 34.351562 25.082031 34.351562 C 19.335938 34.351562 14.675781 29.691406 14.675781 23.941406 C 14.675781 18.195312 19.335938 13.535156 25.082031 13.535156 C 30.832031 13.535156 35.492188 18.195312 35.492188 23.941406 Z M 35.492188 23.941406 "/>
<path style="fill:none;stroke-width:2;stroke-linecap:butt;stroke-linejoin:miter;stroke:rgb(100%,83.921569%,48.627451%);stroke-opacity:1;stroke-miterlimit:4;" d="M 36.899783 25.29827 C 36.899783 36.068669 28.168066 44.800385 17.397667 44.800385 C 6.627268 44.800385 -2.096756 36.068669 -2.096756 25.29827 C -2.096756 14.52787 6.627268 5.796154 17.397667 5.796154 C 28.168066 5.796154 36.899783 14.52787 36.899783 25.29827 Z M 36.899783 25.29827 " transform="matrix(0.507757,0,0,0.507757,16.248237,11.096023)"/>
<path style="fill:none;stroke-width:2;stroke-linecap:round;stroke-linejoin:round;stroke:rgb(19.607843%,74.901961%,66.666667%);stroke-opacity:1;stroke-miterlimit:4;" d="M 289.202409 57.101709 L 289.202409 91.397738 C 289.202409 94.198042 291.502658 96.39828 294.202951 96.39828 L 319.397993 96.39828 C 322.198296 96.39828 324.398535 94.098031 324.398535 91.397738 L 324.398535 53.70134 C 324.398535 52.301188 323.298416 51.201069 321.898264 51.201069 L 296.703223 51.201069 C 295.503092 51.101058 294.502984 52.101167 294.402973 53.201286 C 294.402973 53.401308 294.402973 53.70134 294.502984 53.901362 C 295.803125 58.201829 299.303505 64.30249 306.796625 64.30249 C 311.497135 64.30249 315.497569 61.002132 317.397776 57.101709 " transform="matrix(0.507757,0,0,0.507757,-135.571227,-24.954753)"/>
<path style="fill:none;stroke-width:2;stroke-linecap:round;stroke-linejoin:round;stroke:rgb(19.607843%,74.901961%,66.666667%);stroke-opacity:1;stroke-miterlimit:4;" d="M 315.097526 91.797781 L 315.097526 112.80006 C 315.097526 115.700375 312.797276 118.000624 309.896962 118.000624 L 273.200673 118.000624 C 270.300358 118.000624 268.000109 115.700375 268.000109 112.80006 L 268.000109 97.098356 C 268.000109 94.198042 270.300358 91.897792 273.200673 91.897792 L 290.50255 91.897792 C 291.202626 91.897792 291.902702 91.59776 292.402756 91.097705 L 296.103158 87.397304 C 296.603212 86.89725 297.303288 86.597217 297.903353 86.597217 L 309.896962 86.597217 " transform="matrix(0.507757,0,0,0.507757,-135.571227,-24.954753)"/>
</g>
</svg>
