<?xml version="1.0" encoding="UTF-8"?>
<svg xmlns="http://www.w3.org/2000/svg" xmlns:xlink="http://www.w3.org/1999/xlink" width="px" height="px" viewBox="0 0 18 18" version="1.1">
<g id="surface1">
<path style="fill:none;stroke-width:2;stroke-linecap:butt;stroke-linejoin:miter;stroke:rgb(1.960784%,50.588235%,98.823529%);stroke-opacity:1;stroke-miterlimit:4;" d="M 2334.890875 896.473 L 2317.797125 896.473 L 2317.797125 930.433937 L 2342.469 930.433937 L 2342.469 904.098 " transform="matrix(0.5,0,0,0.5,-1153.4845,-447.7365)"/>
<path style="fill:none;stroke-width:2;stroke-linecap:butt;stroke-linejoin:miter;stroke:rgb(1.960784%,50.588235%,98.823529%);stroke-opacity:1;stroke-miterlimit:4;" d="M -0.002875 0.001125 L 9.458062 0.001125 L 9.458062 2.602688 L -0.002875 2.602688 Z M -0.002875 0.001125 " transform="matrix(0.5,0,0,0.5,6.978,2.2885)"/>
<path style="fill:none;stroke-width:2;stroke-linecap:butt;stroke-linejoin:miter;stroke:rgb(1.960784%,50.588235%,98.823529%);stroke-opacity:1;stroke-miterlimit:4;" d="M -0.002875 0.00325 L 18.184625 0.00325 L 18.184625 13.62825 L -0.002875 13.62825 Z M -0.002875 0.00325 " transform="matrix(0.5,0,0,0.5,6.978,6.139)"/>
<path style="fill:none;stroke-width:2;stroke-linecap:butt;stroke-linejoin:miter;stroke:rgb(1.960784%,50.588235%,98.823529%);stroke-opacity:1;stroke-miterlimit:4;" d="M -0.003625 -0.0000625 L 18.347937 -0.0000625 " transform="matrix(0.5,0,0,0.5,6.9315,7.793)"/>
<path style="fill:none;stroke-width:2;stroke-linecap:butt;stroke-linejoin:miter;stroke:rgb(1.960784%,50.588235%,98.823529%);stroke-opacity:1;stroke-miterlimit:4;" d="M 0.000875 -0.0034375 L 0.000875 13.86375 " transform="matrix(0.5,0,0,0.5,14.023,6.115)"/>
<path style="fill:none;stroke-width:2;stroke-linecap:butt;stroke-linejoin:miter;stroke:rgb(1.960784%,50.588235%,98.823529%);stroke-opacity:1;stroke-miterlimit:4;" d="M -0.0018125 -0.0034375 L -0.0018125 13.86375 " transform="matrix(0.5,0,0,0.5,10.3095,6.115)"/>
<path style="fill:none;stroke-width:2;stroke-linecap:butt;stroke-linejoin:miter;stroke:rgb(1.960784%,50.588235%,98.823529%);stroke-opacity:1;stroke-miterlimit:4;" d="M 7.517562 0.002375 L 0.0019375 0.002375 " transform="matrix(0.5,0,0,0.5,12.4795,14.8035)"/>
<path style="fill:none;stroke-width:2;stroke-linecap:butt;stroke-linejoin:miter;stroke:rgb(1.960784%,50.588235%,98.823529%);stroke-opacity:1;stroke-miterlimit:4;" d="M 2293.109625 927.411375 L 2293.109625 897.098875 L 2296.383063 897.098875 L 2296.383063 927.411375 " transform="matrix(0.5,0,0,0.5,-1144.547,-447.9635)"/>
<path style="fill:none;stroke-width:2;stroke-linecap:butt;stroke-linejoin:miter;stroke:rgb(1.960784%,50.588235%,98.823529%);stroke-opacity:1;stroke-miterlimit:4;" d="M 0.0015625 0.003125 L 3.18125 0.003125 " transform="matrix(0.5,0,0,0.5,2.1125,9.6625)"/>
<path style="fill:none;stroke-width:2;stroke-linecap:butt;stroke-linejoin:miter;stroke:rgb(1.960784%,50.588235%,98.823529%);stroke-opacity:1;stroke-miterlimit:4;" d="M 0.0015625 -0.0008125 L 3.18125 -0.0008125 " transform="matrix(0.5,0,0,0.5,2.1125,8.559)"/>
<path style="fill:none;stroke-width:2;stroke-linecap:butt;stroke-linejoin:miter;stroke:rgb(1.960784%,50.588235%,98.823529%);stroke-opacity:1;stroke-miterlimit:4;" d="M 2288.960437 906.147875 L 2282.187 906.147875 L 2282.187 916.897875 " transform="matrix(0.5,0,0,0.5,-1140.5935,-451.238)"/>
<path style="fill:none;stroke-width:2;stroke-linecap:butt;stroke-linejoin:miter;stroke:rgb(1.960784%,50.588235%,98.823529%);stroke-opacity:1;stroke-miterlimit:4;" d="M 2296.383063 1007.441 L 2296.383063 1007.09725 L 2293.109625 1007.09725 L 2293.109625 1007.823812 L 2293.828375 1010.40975 L 2295.6565 1010.40975 L 2296.383063 1007.823812 Z M 2296.383063 1007.441 " transform="matrix(0.5,0,0,0.5,-1144.547,-487.783)"/>
</g>
</svg>
