<?xml version="1.0" encoding="UTF-8"?>
<svg xmlns="http://www.w3.org/2000/svg" xmlns:xlink="http://www.w3.org/1999/xlink" width="px" height="px" viewBox="0 0 17 18" version="1.1">
<g id="surface1">
<path style="fill:none;stroke-width:2;stroke-linecap:butt;stroke-linejoin:miter;stroke:rgb(1.960784%,50.588235%,98.823529%);stroke-opacity:1;stroke-miterlimit:4;" d="M 0.000125 -0.00242708 L 0.000125 8.765802 " transform="matrix(0.5,0,0,0.486486,9.3515,6.165243)"/>
<path style="fill:none;stroke-width:2;stroke-linecap:butt;stroke-linejoin:miter;stroke:rgb(1.960784%,50.588235%,98.823529%);stroke-opacity:1;stroke-miterlimit:4;" d="M 432.44975 2146.696462 C 431.371625 2147.660003 429.863812 2147.973155 428.488812 2147.523502 C 428.027875 2146.158484 428.348187 2144.648936 429.316937 2143.58101 C 430.395062 2142.625498 431.902875 2142.312347 433.277875 2142.762 C 433.731 2144.127017 433.4185 2145.636566 432.44975 2146.696462 Z M 432.44975 2146.696462 " transform="matrix(0.5,0,0,0.486486,-203.6155,-1035.674757)"/>
<path style="fill:none;stroke-width:2;stroke-linecap:butt;stroke-linejoin:miter;stroke:rgb(1.960784%,50.588235%,98.823529%);stroke-opacity:1;stroke-miterlimit:4;" d="M 2.743812 -0.00188542 L 0.001625 2.72012 " transform="matrix(0.5,0,0,0.486486,9.4445,8.88373)"/>
<path style="fill:none;stroke-width:2;stroke-linecap:butt;stroke-linejoin:miter;stroke:rgb(1.960784%,50.588235%,98.823529%);stroke-opacity:1;stroke-miterlimit:4;" d="M 406.575375 2146.696462 C 407.6535 2147.660003 409.169125 2147.973155 410.536313 2147.523502 C 410.99725 2146.158484 410.676938 2144.648936 409.708188 2143.58101 C 408.630063 2142.625498 407.12225 2142.312347 405.74725 2142.762 C 405.294125 2144.127017 405.606625 2145.636566 406.575375 2146.696462 Z M 406.575375 2146.696462 " transform="matrix(0.5,0,0,0.486486,-197.108,-1035.674757)"/>
<path style="fill:none;stroke-width:2;stroke-linecap:butt;stroke-linejoin:miter;stroke:rgb(1.960784%,50.588235%,98.823529%);stroke-opacity:1;stroke-miterlimit:4;" d="M 0.003125 -0.00188542 L 2.7375 2.72012 " transform="matrix(0.5,0,0,0.486486,7.975,8.88373)"/>
<path style="fill:none;stroke-width:2;stroke-linecap:butt;stroke-linejoin:miter;stroke:rgb(1.960784%,50.588235%,98.823529%);stroke-opacity:1;stroke-miterlimit:4;" d="M 421.041688 2118.403906 C 421.0495 2120.644141 419.713563 2122.667578 417.64325 2123.534766 C 415.58075 2124.401953 413.190125 2123.936241 411.604188 2122.354427 C 410.01825 2120.780642 409.533875 2118.395877 410.39325 2116.324262 C 411.244813 2114.252648 413.260438 2112.903689 415.502625 2112.903689 C 418.5495 2112.88763 421.026063 2115.352691 421.041688 2118.403906 Z M 421.041688 2118.403906 " transform="matrix(0.5,0,0,0.486486,-198.3685,-1027.410811)"/>
<path style="fill:none;stroke-width:2;stroke-linecap:butt;stroke-linejoin:bevel;stroke:rgb(1.960784%,50.588235%,98.823529%);stroke-opacity:1;stroke-miterlimit:4;" d="M 420.971812 2125.236786 L 420.971812 2121.093557 L 419.542125 2122.225719 " transform="matrix(0.5,0,0,0.486486,-201.107,-1029.691946)"/>
<path style="fill:none;stroke-width:2;stroke-linecap:butt;stroke-linejoin:miter;stroke:rgb(1.960784%,50.588235%,98.823529%);stroke-opacity:1;stroke-miterlimit:4;" d="M 435.657187 2160.762642 L 436.665 2158.875707 C 436.63375 2158.867677 436.610312 2158.851618 436.579062 2158.843589 L 435.844687 2158.610733 C 434.563437 2158.353788 433.282187 2159.036297 432.79 2160.240724 L 430.594687 2163.589031 " transform="matrix(0.5,0,0,0.486486,-204.27,-1040.111514)"/>
<path style="fill:none;stroke-width:2;stroke-linecap:butt;stroke-linejoin:miter;stroke:rgb(1.960784%,50.588235%,98.823529%);stroke-opacity:1;stroke-miterlimit:4;" d="M 398.186312 2171.560498 L 402.912875 2171.560498 L 414.748812 2167.192443 L 422.33475 2162.005377 C 422.311312 2161.981288 422.287875 2161.9572 422.27225 2161.933111 L 421.725375 2161.395134 C 420.694125 2160.592182 419.248812 2160.6243 418.256625 2161.475429 L 413.748812 2164.052903 L 411.967562 2165.080681 L 404.373812 2165.080681 L 404.373812 2165.056592 L 409.08475 2165.064622 C 410.342562 2164.871913 411.264437 2163.76384 411.20975 2162.487148 C 411.20975 2162.487148 411.1785 2162.214144 411.1785 2162.190056 L 402.77225 2162.190056 L 399.514437 2165.032503 L 398.186312 2165.032503 " transform="matrix(0.5,0,0,0.486486,-194.9955,-1040.751243)"/>
<path style="fill:none;stroke-width:2;stroke-linecap:butt;stroke-linejoin:miter;stroke:rgb(1.960784%,50.588235%,98.823529%);stroke-opacity:1;stroke-miterlimit:4;" d="M 379.02 2166.517951 L 385.277812 2166.517951 L 385.277812 2178.409661 L 382.043437 2178.409661 " transform="matrix(0.5,0,0,0.486486,-189.51,-1042.341081)"/>
<path style="fill:none;stroke-width:2;stroke-linecap:butt;stroke-linejoin:miter;stroke:rgb(1.960784%,50.588235%,98.823529%);stroke-opacity:1;stroke-miterlimit:4;" d="M 1.370312 0.00362674 L 0.003125 0.00362674 " transform="matrix(0.5,0,0,0.486486,1.5375,16.095892)"/>
</g>
</svg>
