<?xml version="1.0" encoding="UTF-8"?>
<svg xmlns="http://www.w3.org/2000/svg" xmlns:xlink="http://www.w3.org/1999/xlink" width="px" height="px" viewBox="0 0 18 21" version="1.1">
<g id="surface1">
<path style="fill:none;stroke-width:2;stroke-linecap:round;stroke-linejoin:round;stroke:rgb(1.960784%,50.588235%,98.823529%);stroke-opacity:1;stroke-miterlimit:4;" d="M 1154.848438 1366.999814 C 1145.504688 1367.007813 1137.934375 1374.590402 1137.95 1383.940662 C 1137.95 1393.298921 1154.848438 1407.736235 1154.848438 1407.736235 C 1154.848438 1407.736235 1171.746875 1393.298921 1171.746875 1383.940662 C 1171.7625 1374.590402 1164.192188 1367.007813 1154.848438 1366.999814 Z M 1154.848438 1366.999814 " transform="matrix(0.5,0,0,0.488372,-568.475,-667.116279)"/>
<path style="fill:none;stroke-width:2;stroke-linecap:round;stroke-linejoin:round;stroke:rgb(1.960784%,50.588235%,98.823529%);stroke-opacity:1;stroke-miterlimit:4;" d="M 1157.412438 1394.293214 C 1153.115563 1394.301213 1149.623375 1390.82186 1149.60775 1386.526659 C 1149.599938 1382.22346 1153.084313 1378.72811 1157.389 1378.72811 C 1161.685875 1378.720112 1165.178063 1382.207463 1165.178063 1386.510662 C 1165.185875 1390.797865 1161.709313 1394.285216 1157.412438 1394.293214 Z M 1157.412438 1394.293214 " transform="matrix(0.5,0,0,0.488372,-569.757,-668.371395)"/>
<path style="fill:none;stroke-width:2;stroke-linecap:butt;stroke-linejoin:miter;stroke:rgb(1.960784%,50.588235%,98.823529%);stroke-opacity:1;stroke-miterlimit:4;" d="M 1143.533375 1388.504664 C 1143.533375 1388.288704 1143.541188 1388.072744 1143.549 1387.864783 " transform="matrix(0.5,0,0,0.488372,-569.087,-669.349116)"/>
<path style="fill:none;stroke-width:2;stroke-linecap:butt;stroke-linejoin:miter;stroke:rgb(1.960784%,50.588235%,98.823529%);stroke-opacity:1;stroke-dasharray:3.798,3.798;stroke-miterlimit:4;" d="M 1143.713 1383.31401 C 1144.55675 1377.635067 1149.1505 1373.259881 1154.861438 1372.683988 " transform="matrix(0.5,0,0,0.488372,-569.1065,-667.724302)"/>
<path style="fill:none;stroke-width:2;stroke-linecap:butt;stroke-linejoin:miter;stroke:rgb(1.960784%,50.588235%,98.823529%);stroke-opacity:1;stroke-miterlimit:4;" d="M 1158.771813 1372.617997 C 1158.990563 1372.609999 1159.2015 1372.602 1159.42025 1372.602 " transform="matrix(0.5,0,0,0.488372,-570.757,-667.715512)"/>
</g>
</svg>
