<?xml version="1.0" encoding="UTF-8"?>
<svg xmlns="http://www.w3.org/2000/svg" xmlns:xlink="http://www.w3.org/1999/xlink" width="px" height="px" viewBox="0 0 21 20" version="1.1">
<g id="surface1">
<path style=" stroke:none;fill-rule:nonzero;fill:rgb(1.960784%,50.588235%,98.823529%);fill-opacity:1;" d="M 9.898438 3.730469 C 10.886719 3.726562 11.75 4.386719 12.011719 5.335938 C 12.273438 6.285156 11.867188 7.296875 11.023438 7.800781 L 10.65625 8.019531 L 10.722656 8.4375 L 11.683594 14.667969 L 8.109375 14.667969 L 9.074219 8.4375 L 9.140625 8.019531 L 8.777344 7.800781 C 7.929688 7.292969 7.523438 6.285156 7.785156 5.335938 C 8.046875 4.386719 8.914062 3.726562 9.898438 3.730469 M 9.898438 3.09375 C 8.628906 3.09375 7.511719 3.941406 7.175781 5.167969 C 6.835938 6.390625 7.359375 7.691406 8.449219 8.34375 L 7.371094 15.300781 L 12.421875 15.300781 L 11.347656 8.34375 C 12.4375 7.691406 12.960938 6.390625 12.621094 5.167969 C 12.285156 3.941406 11.167969 3.09375 9.898438 3.09375 Z M 9.898438 3.09375 "/>
<path style="fill:none;stroke-width:2;stroke-linecap:butt;stroke-linejoin:miter;stroke:rgb(1.960784%,50.588235%,98.823529%);stroke-opacity:1;stroke-miterlimit:4;" d="M 596.618187 1554.673188 L 569.118187 1554.673188 M 570.626 1554.610688 L 570.626 1562.477875 L 573.836937 1562.477875 L 573.836937 1560.27475 L 576.047875 1560.27475 L 576.047875 1562.477875 L 579.258812 1562.477875 L 579.258812 1554.610688 " transform="matrix(0.5,0,0,0.5,-284.563,-767.528)"/>
<path style="fill:none;stroke-width:2;stroke-linecap:butt;stroke-linejoin:miter;stroke:rgb(1.960784%,50.588235%,98.823529%);stroke-opacity:1;stroke-miterlimit:4;" d="M -0.002125 5.228875 L -0.002125 0.0023125 " transform="matrix(0.5,0,0,0.5,3.462,11.0965)"/>
<path style="fill:none;stroke-width:2;stroke-linecap:butt;stroke-linejoin:miter;stroke:rgb(1.960784%,50.588235%,98.823529%);stroke-opacity:1;stroke-miterlimit:4;" d="M 636.577875 1547.709937 C 636.577875 1551.350562 633.632562 1554.295875 629.99975 1554.295875 C 626.359125 1554.295875 623.413812 1551.350562 623.413812 1547.709937 C 623.413812 1544.077125 626.359125 1541.131812 629.99975 1541.131812 C 633.632562 1541.131812 636.577875 1544.077125 636.577875 1547.709937 Z M 636.577875 1547.709937 " transform="matrix(0.5,0,0,0.5,-298.0155,-764.187)"/>
<path style="fill:none;stroke-width:2;stroke-linecap:butt;stroke-linejoin:miter;stroke:rgb(1.960784%,50.588235%,98.823529%);stroke-opacity:1;stroke-miterlimit:4;" d="M 636.5255 1550.641937 C 636.5255 1552.634125 634.916125 1554.2435 632.93175 1554.2435 C 630.939562 1554.2435 629.330187 1552.634125 629.330187 1550.641937 C 629.330187 1548.657562 630.939562 1547.040375 632.93175 1547.040375 C 634.916125 1547.040375 636.5255 1548.657562 636.5255 1550.641937 Z M 636.5255 1550.641937 " transform="matrix(0.5,0,0,0.5,-299.4815,-765.653)"/>
<path style="fill:none;stroke-width:2;stroke-linecap:butt;stroke-linejoin:miter;stroke:rgb(1.960784%,50.588235%,98.823529%);stroke-opacity:1;stroke-miterlimit:4;" d="M 0.0000625 0 L 0.0000625 3.273438 " transform="matrix(0.5,0,0,0.5,9.957,0)"/>
<path style="fill:none;stroke-width:2;stroke-linecap:butt;stroke-linejoin:miter;stroke:rgb(1.960784%,50.588235%,98.823529%);stroke-opacity:1;stroke-miterlimit:4;" d="M -0.000375 0.00325 L 1.116812 3.073562 " transform="matrix(0.5,0,0,0.5,6.5705,0.5765)"/>
<path style="fill:none;stroke-width:2;stroke-linecap:butt;stroke-linejoin:miter;stroke:rgb(1.960784%,50.588235%,98.823529%);stroke-opacity:1;stroke-miterlimit:4;" d="M 0.000875 0.0016875 L 2.102437 2.5095 " transform="matrix(0.5,0,0,0.5,3.5855,2.2765)"/>
<path style="fill:none;stroke-width:2;stroke-linecap:butt;stroke-linejoin:miter;stroke:rgb(1.960784%,50.588235%,98.823529%);stroke-opacity:1;stroke-miterlimit:4;" d="M 0.0025625 -0.0009375 L 2.8385 1.639688 " transform="matrix(0.5,0,0,0.5,1.362,4.895)"/>
<path style="fill:none;stroke-width:2;stroke-linecap:butt;stroke-linejoin:miter;stroke:rgb(1.960784%,50.588235%,98.823529%);stroke-opacity:1;stroke-miterlimit:4;" d="M 0.0001875 2.506375 L 2.10175 -0.0014375 " transform="matrix(0.5,0,0,0.5,3.496,16.1765)"/>
<path style="fill:none;stroke-width:2;stroke-linecap:butt;stroke-linejoin:miter;stroke:rgb(1.960784%,50.588235%,98.823529%);stroke-opacity:1;stroke-miterlimit:4;" d="M 0.000875 3.074125 L 1.118062 0.0038125 " transform="matrix(0.5,0,0,0.5,6.4605,17.627)"/>
<path style="fill:none;stroke-width:2;stroke-linecap:butt;stroke-linejoin:miter;stroke:rgb(1.960784%,50.588235%,98.823529%);stroke-opacity:1;stroke-miterlimit:4;" d="M -0.0003125 3.2725 L -0.0003125 -0.0009375 " transform="matrix(0.5,0,0,0.5,9.84,18.145)"/>
<path style="fill:none;stroke-width:2;stroke-linecap:butt;stroke-linejoin:miter;stroke:rgb(1.960784%,50.588235%,98.823529%);stroke-opacity:1;stroke-miterlimit:4;" d="M 1.120125 3.080062 L 0.0029375 0.0019375 " transform="matrix(0.5,0,0,0.5,12.6665,17.667)"/>
<path style="fill:none;stroke-width:2;stroke-linecap:butt;stroke-linejoin:miter;stroke:rgb(1.960784%,50.588235%,98.823529%);stroke-opacity:1;stroke-miterlimit:4;" d="M 2.103875 2.504812 L 0.0023125 -0.003 " transform="matrix(0.5,0,0,0.5,15.159,16.2515)"/>
<path style="fill:none;stroke-width:2;stroke-linecap:butt;stroke-linejoin:miter;stroke:rgb(1.960784%,50.588235%,98.823529%);stroke-opacity:1;stroke-miterlimit:4;" d="M 2.104562 0.000125 L 0.003 2.507937 " transform="matrix(0.5,0,0,0.5,15.2485,2.3515)"/>
<path style="fill:none;stroke-width:2;stroke-linecap:butt;stroke-linejoin:miter;stroke:rgb(1.960784%,50.588235%,98.823529%);stroke-opacity:1;stroke-miterlimit:4;" d="M 1.118875 0.001375 L 0.0016875 3.0795 " transform="matrix(0.5,0,0,0.5,12.7765,0.6165)"/>
</g>
</svg>
