<?xml version="1.0" encoding="UTF-8"?>
<svg xmlns="http://www.w3.org/2000/svg" xmlns:xlink="http://www.w3.org/1999/xlink" width="px" height="px" viewBox="0 0 19 18" version="1.1">
<g id="surface1">
<path style="fill:none;stroke-width:2;stroke-linecap:butt;stroke-linejoin:miter;stroke:rgb(1.960784%,50.588235%,98.823529%);stroke-opacity:1;stroke-miterlimit:4;" d="M 2358.6235 1345.110785 C 2354.045375 1345.126844 2350.357875 1348.860568 2350.381313 1353.429361 C 2350.381313 1358.030273 2358.6235 1365.136392 2358.6235 1365.136392 C 2358.6235 1365.136392 2366.857875 1358.030273 2366.857875 1353.429361 C 2366.889125 1348.860568 2363.193813 1345.126844 2358.6235 1345.110785 Z M 2358.6235 1345.110785 " transform="matrix(0.5,0,0,0.486486,-1164.968,-646.862595)"/>
<path style="fill:none;stroke-width:2;stroke-linecap:butt;stroke-linejoin:miter;stroke:rgb(1.960784%,50.588235%,98.823529%);stroke-opacity:1;stroke-dasharray:4,4;stroke-miterlimit:4;" d="M 2296.6235 1359.201542 L 2285.170375 1359.201542 C 2283.514125 1359.209571 2282.178188 1360.55853 2282.186 1362.212609 C 2282.178188 1363.866689 2283.514125 1365.215648 2285.170375 1365.223677 L 2301.889125 1365.223677 " transform="matrix(0.5,0,0,0.486486,-1140.593,-651.764432)"/>
<path style="fill:none;stroke-width:2;stroke-linecap:butt;stroke-linejoin:miter;stroke:rgb(1.960784%,50.588235%,98.823529%);stroke-opacity:1;stroke-dasharray:4,4;stroke-miterlimit:4;" d="M 2310.611563 1350.838512 L 2313.533438 1350.838512 C 2313.970938 1350.838512 2314.392813 1350.661863 2314.6975 1350.348712 C 2315.01 1350.035561 2315.181875 1349.618026 2315.181875 1349.176403 C 2315.181875 1348.261038 2314.4475 1347.522323 2313.533438 1347.514293 L 2303.619375 1347.514293 " transform="matrix(0.5,0,0,0.486486,-1148.255,-647.699838)"/>
<path style="fill:none;stroke-width:2;stroke-linecap:butt;stroke-linejoin:miter;stroke:rgb(1.960784%,50.588235%,98.823529%);stroke-opacity:1;stroke-miterlimit:4;" d="M 2291.111688 1294.444689 C 2288.189813 1294.452719 2285.83825 1296.837484 2285.853875 1299.752198 C 2285.853875 1302.691 2291.111688 1307.227675 2291.111688 1307.227675 C 2291.111688 1307.227675 2296.377313 1302.691 2296.377313 1299.752198 C 2296.392938 1296.837484 2294.033563 1294.452719 2291.111688 1294.444689 Z M 2291.111688 1294.444689 " transform="matrix(0.5,0,0,0.486486,-1141.9035,-629.241568)"/>
<path style="fill:none;stroke-width:2;stroke-linecap:butt;stroke-linejoin:miter;stroke:rgb(1.960784%,50.588235%,98.823529%);stroke-opacity:1;stroke-miterlimit:4;" d="M 2298.962688 1309.838108 C 2298.0955 1309.854167 2297.298625 1309.332248 2296.962688 1308.529297 C 2296.618938 1307.726345 2296.798625 1306.794922 2297.408 1306.176649 C 2298.025188 1305.558377 2298.954875 1305.365668 2299.759563 1305.702908 C 2300.56425 1306.032118 2301.0955 1306.81901 2301.0955 1307.686198 C 2301.0955 1308.874566 2300.142375 1309.838108 2298.962688 1309.838108 Z M 2298.962688 1309.838108 " transform="matrix(0.5,0,0,0.486486,-1145.829,-633.101351)"/>
<path style="fill:none;stroke-width:2;stroke-linecap:butt;stroke-linejoin:miter;stroke:rgb(1.960784%,50.588235%,98.823529%);stroke-opacity:1;stroke-miterlimit:4;" d="M 2369.0245 1368.077561 C 2367.344812 1368.101649 2365.829187 1367.10599 2365.172937 1365.556293 C 2364.516687 1364.014627 2364.860437 1362.232075 2366.040125 1361.043707 C 2367.219812 1359.847309 2369.001062 1359.485981 2370.547937 1360.120312 C 2372.094812 1360.762674 2373.110437 1362.272222 2373.110437 1363.942361 C 2373.11825 1366.214714 2371.290125 1368.069531 2369.0245 1368.077561 Z M 2369.0245 1368.077561 " transform="matrix(0.5,0,0,0.486486,-1170.1685,-651.977027)"/>
</g>
</svg>
