<?xml version="1.0" encoding="UTF-8"?>
<svg xmlns="http://www.w3.org/2000/svg" xmlns:xlink="http://www.w3.org/1999/xlink" width="px" height="px" viewBox="0 0 18 18" version="1.1">
<g id="surface1">
<path style="fill:none;stroke-width:2;stroke-linecap:butt;stroke-linejoin:miter;stroke:rgb(1.960784%,50.588235%,98.823529%);stroke-opacity:1;stroke-miterlimit:4;" d="M 2291.255688 2372.988368 L 2284.451 2372.988368 L 2284.451 2358.928689 L 2318.54475 2358.928689 L 2318.54475 2372.988368 L 2311.54475 2372.988368 " transform="matrix(0.5,0,0,0.486486,-1141.7255,-1147.098649)"/>
<path style="fill:none;stroke-width:2;stroke-linecap:butt;stroke-linejoin:miter;stroke:rgb(1.960784%,50.588235%,98.823529%);stroke-opacity:1;stroke-miterlimit:4;" d="M 2315.602438 2368.055969 L 2315.602438 2395.316168 C 2315.594625 2396.223503 2314.852438 2396.954189 2313.938375 2396.954189 L 2297.055563 2396.954189 C 2296.1415 2396.954189 2295.399313 2396.223503 2295.3915 2395.316168 L 2295.3915 2368.055969 " transform="matrix(0.5,0,0,0.486486,-1143.727,-1148.722541)"/>
<path style="fill:none;stroke-width:2;stroke-linecap:butt;stroke-linejoin:miter;stroke:rgb(1.960784%,50.588235%,98.823529%);stroke-opacity:1;stroke-miterlimit:4;" d="M -0.003 11.814102 L -0.003 0.0026875 " transform="matrix(0.5,0,0,0.486486,11.3765,10.545568)"/>
<path style="fill:none;stroke-width:2;stroke-linecap:butt;stroke-linejoin:miter;stroke:rgb(1.960784%,50.588235%,98.823529%);stroke-opacity:1;stroke-miterlimit:4;" d="M -0.0001875 0.00396875 L -0.0001875 5.191035 " transform="matrix(0.5,0,0,0.486486,8.4415,3.302757)"/>
<path style="fill:none;stroke-width:2;stroke-linecap:butt;stroke-linejoin:miter;stroke:rgb(1.960784%,50.588235%,98.823529%);stroke-opacity:1;stroke-miterlimit:4;" d="M -0.00275 0.00396875 L -0.00275 9.751799 " transform="matrix(0.5,0,0,0.486486,5.767,3.302757)"/>
<path style="fill:none;stroke-width:2;stroke-linecap:butt;stroke-linejoin:miter;stroke:rgb(1.960784%,50.588235%,98.823529%);stroke-opacity:1;stroke-miterlimit:4;" d="M -0.0001875 -0.000114583 L -0.0001875 5.034391 " transform="matrix(0.5,0,0,0.486486,8.4415,6.867243)"/>
<path style="fill:none;stroke-width:2;stroke-linecap:butt;stroke-linejoin:miter;stroke:rgb(1.960784%,50.588235%,98.823529%);stroke-opacity:1;stroke-miterlimit:4;" d="M -0.0001875 -0.00175868 L -0.0001875 5.032747 " transform="matrix(0.5,0,0,0.486486,8.4415,10.356324)"/>
<path style="fill:none;stroke-width:2;stroke-linecap:butt;stroke-linejoin:miter;stroke:rgb(1.960784%,50.588235%,98.823529%);stroke-opacity:1;stroke-miterlimit:4;" d="M -0.0001875 -0.00240278 L -0.0001875 5.032102 " transform="matrix(0.5,0,0,0.486486,8.4415,13.844919)"/>
<path style="fill:none;stroke-width:2;stroke-linecap:butt;stroke-linejoin:miter;stroke:rgb(1.960784%,50.588235%,98.823529%);stroke-opacity:1;stroke-miterlimit:4;" d="M 2315.798813 2368.055969 L 2315.798813 2373.042297 L 2319.533188 2373.042297 L 2319.533188 2368.055969 " transform="matrix(0.5,0,0,0.486486,-1147.458,-1148.722541)"/>
<path style="fill:none;stroke-width:2;stroke-linecap:butt;stroke-linejoin:miter;stroke:rgb(1.960784%,50.588235%,98.823529%);stroke-opacity:1;stroke-miterlimit:4;" d="M 2290.70375 2370.992158 L 2290.70375 2367.009519 L 2316.867813 2367.009519 L 2316.867813 2370.992158 " transform="matrix(0.5,0,0,0.486486,-1142.8675,-1148.537676)"/>
</g>
</svg>
