<?xml version="1.0" encoding="UTF-8"?>
<svg xmlns="http://www.w3.org/2000/svg" xmlns:xlink="http://www.w3.org/1999/xlink" width="px" height="px" viewBox="0 0 18 18" version="1.1">
<defs>
<filter id="alpha" filterUnits="objectBoundingBox" x="0%" y="0%" width="100%" height="100%">
  <feColorMatrix type="matrix" in="SourceGraphic" values="0 0 0 0 1 0 0 0 0 1 0 0 0 0 1 0 0 0 1 0"/>
</filter>
<mask id="mask0">
  <g filter="url(#alpha)">
<rect x="0" y="0" width="18" height="18" style="fill:rgb(0%,0%,0%);fill-opacity:0.4;stroke:none;"/>
  </g>
</mask>
<clipPath id="clip1">
  <rect x="0" y="0" width="18" height="18"/>
</clipPath>
<g id="surface5" clip-path="url(#clip1)">
<path style=" stroke:none;fill-rule:nonzero;fill:rgb(26.27451%,75.294118%,97.254902%);fill-opacity:1;" d="M 18 9 C 18 13.96875 13.96875 18 9 18 C 4.03125 18 0 13.96875 0 9 C 0 4.03125 4.03125 0 9 0 C 13.96875 0 18 4.03125 18 9 Z M 18 9 "/>
</g>
</defs>
<g id="surface1">
<path style=" stroke:none;fill-rule:nonzero;fill:rgb(1.960784%,50.588235%,98.823529%);fill-opacity:1;" d="M 12.738281 14.414062 L 5.382812 14.414062 C 5.125 14.414062 4.921875 14.210938 4.921875 13.953125 L 4.921875 4.488281 C 4.921875 4.230469 5.125 4.027344 5.382812 4.027344 L 12.789062 4.027344 C 13.046875 4.027344 13.253906 4.230469 13.253906 4.488281 L 13.253906 14.003906 C 13.203125 14.210938 12.996094 14.414062 12.738281 14.414062 Z M 5.796875 13.539062 L 12.277344 13.539062 L 12.277344 4.902344 L 5.796875 4.902344 Z M 5.796875 13.539062 "/>
<path style=" stroke:none;fill-rule:nonzero;fill:rgb(1.960784%,50.588235%,98.823529%);fill-opacity:1;" d="M 10.558594 5.480469 L 7.523438 5.480469 C 7.011719 5.480469 6.597656 5.070312 6.597656 4.503906 C 6.597656 3.9375 7.011719 3.578125 7.523438 3.578125 L 10.558594 3.578125 C 11.074219 3.578125 11.484375 3.992188 11.484375 4.503906 C 11.484375 5.019531 11.074219 5.480469 10.558594 5.480469 Z M 7.523438 4.453125 C 7.472656 4.453125 7.472656 4.503906 7.472656 4.503906 C 7.472656 4.554688 7.472656 4.554688 7.523438 4.554688 L 10.558594 4.554688 C 10.609375 4.554688 10.609375 4.503906 10.609375 4.503906 C 10.609375 4.453125 10.609375 4.453125 10.558594 4.453125 Z M 7.523438 4.453125 "/>
<path style=" stroke:none;fill-rule:nonzero;fill:rgb(1.960784%,50.588235%,98.823529%);fill-opacity:1;" d="M 7.535156 7 L 7.019531 7 C 6.917969 7 6.8125 7.101562 6.8125 7.207031 L 6.8125 7.71875 C 6.8125 7.824219 6.917969 7.925781 7.019531 7.925781 L 7.535156 7.925781 C 7.636719 7.925781 7.738281 7.824219 7.738281 7.71875 L 7.738281 7.207031 C 7.738281 7.101562 7.636719 7 7.535156 7 Z M 7.535156 7 "/>
<path style=" stroke:none;fill-rule:nonzero;fill:rgb(1.960784%,50.588235%,98.823529%);fill-opacity:1;" d="M 11.292969 7.703125 L 8.414062 7.703125 C 8.3125 7.703125 8.207031 7.601562 8.207031 7.445312 C 8.207031 7.34375 8.3125 7.242188 8.414062 7.242188 L 11.292969 7.242188 C 11.398438 7.242188 11.5 7.34375 11.5 7.445312 C 11.550781 7.601562 11.449219 7.703125 11.292969 7.703125 Z M 11.292969 7.703125 "/>
<path style=" stroke:none;fill-rule:nonzero;fill:rgb(1.960784%,50.588235%,98.823529%);fill-opacity:1;" d="M 7.535156 10.085938 L 7.019531 10.085938 C 6.917969 10.085938 6.8125 10.136719 6.8125 10.292969 L 6.8125 10.804688 C 6.8125 10.910156 6.917969 11.011719 7.019531 11.011719 L 7.535156 11.011719 C 7.636719 11.011719 7.738281 10.910156 7.738281 10.804688 L 7.738281 10.292969 C 7.738281 10.136719 7.636719 10.085938 7.535156 10.085938 Z M 7.535156 10.085938 "/>
<path style=" stroke:none;fill-rule:nonzero;fill:rgb(1.960784%,50.588235%,98.823529%);fill-opacity:1;" d="M 11.292969 10.773438 L 8.414062 10.773438 C 8.3125 10.773438 8.207031 10.671875 8.207031 10.515625 C 8.207031 10.414062 8.3125 10.308594 8.414062 10.308594 L 11.292969 10.308594 C 11.398438 10.308594 11.5 10.414062 11.5 10.515625 C 11.550781 10.671875 11.449219 10.773438 11.292969 10.773438 Z M 11.292969 10.773438 "/>
<path style=" stroke:none;fill-rule:nonzero;fill:rgb(1.960784%,50.588235%,98.823529%);fill-opacity:1;" d="M 7.535156 8.542969 L 7.019531 8.542969 C 6.917969 8.542969 6.8125 8.644531 6.8125 8.75 L 6.8125 9.261719 C 6.8125 9.367188 6.917969 9.46875 7.019531 9.46875 L 7.535156 9.46875 C 7.636719 9.46875 7.738281 9.367188 7.738281 9.261719 L 7.738281 8.75 C 7.738281 8.644531 7.636719 8.542969 7.535156 8.542969 Z M 7.535156 8.542969 "/>
<path style=" stroke:none;fill-rule:nonzero;fill:rgb(1.960784%,50.588235%,98.823529%);fill-opacity:1;" d="M 11.292969 9.238281 L 8.414062 9.238281 C 8.3125 9.238281 8.207031 9.136719 8.207031 8.980469 C 8.207031 8.878906 8.3125 8.777344 8.414062 8.777344 L 11.292969 8.777344 C 11.398438 8.777344 11.5 8.878906 11.5 8.980469 C 11.550781 9.136719 11.449219 9.238281 11.292969 9.238281 Z M 11.292969 9.238281 "/>
<use xlink:href="#surface5" mask="url(#mask0)"/>
</g>
</svg>
