<?xml version="1.0" encoding="UTF-8"?>
<svg xmlns="http://www.w3.org/2000/svg" xmlns:xlink="http://www.w3.org/1999/xlink" width="px" height="px" viewBox="0 0 18 18" version="1.1">
<defs>
<filter id="alpha" filterUnits="objectBoundingBox" x="0%" y="0%" width="100%" height="100%">
  <feColorMatrix type="matrix" in="SourceGraphic" values="0 0 0 0 1 0 0 0 0 1 0 0 0 0 1 0 0 0 1 0"/>
</filter>
<mask id="mask0">
  <g filter="url(#alpha)">
<rect x="0" y="0" width="18" height="18" style="fill:rgb(0%,0%,0%);fill-opacity:0.4;stroke:none;"/>
  </g>
</mask>
<clipPath id="clip1">
  <rect x="0" y="0" width="18" height="18"/>
</clipPath>
<g id="surface5" clip-path="url(#clip1)">
<path style=" stroke:none;fill-rule:nonzero;fill:rgb(26.27451%,75.294118%,97.254902%);fill-opacity:1;" d="M 18 9 C 18 13.96875 13.96875 18 9 18 C 4.03125 18 0 13.96875 0 9 C 0 4.03125 4.03125 0 9 0 C 13.96875 0 18 4.03125 18 9 Z M 18 9 "/>
</g>
</defs>
<g id="surface1">
<path style=" stroke:none;fill-rule:nonzero;fill:rgb(1.960784%,50.588235%,98.823529%);fill-opacity:1;" d="M 10.632812 14.335938 C 10.527344 14.335938 10.425781 14.234375 10.425781 14.132812 L 10.425781 11.816406 C 10.425781 11.714844 10.527344 11.613281 10.632812 11.613281 L 12.945312 11.613281 C 13.050781 11.613281 13.152344 11.714844 13.152344 11.816406 C 13.152344 11.921875 13.101562 12.023438 12.945312 12.074219 L 10.890625 12.074219 L 10.890625 14.132812 C 10.890625 14.234375 10.785156 14.335938 10.632812 14.335938 Z M 10.632812 14.335938 "/>
<path style=" stroke:none;fill-rule:nonzero;fill:rgb(1.960784%,50.588235%,98.823529%);fill-opacity:1;" d="M 10.628906 14.582031 L 6.722656 14.582031 C 6.464844 14.582031 6.257812 14.378906 6.257812 14.121094 L 6.257812 6.304688 C 6.257812 6.046875 6.464844 5.839844 6.722656 5.839844 L 12.945312 5.839844 C 13.203125 5.839844 13.40625 6.046875 13.40625 6.304688 L 13.40625 11.859375 C 13.40625 11.960938 13.355469 12.0625 13.304688 12.167969 L 10.988281 14.480469 C 10.886719 14.53125 10.785156 14.582031 10.628906 14.582031 Z M 7.132812 13.710938 L 10.476562 13.710938 L 12.53125 11.652344 L 12.53125 6.714844 L 7.132812 6.714844 Z M 7.132812 13.710938 "/>
<path style=" stroke:none;fill-rule:nonzero;fill:rgb(1.960784%,50.588235%,98.823529%);fill-opacity:1;" d="M 10.238281 7.972656 L 7.972656 7.972656 C 7.871094 7.921875 7.769531 7.816406 7.769531 7.714844 C 7.769531 7.613281 7.871094 7.507812 7.972656 7.507812 L 10.238281 7.507812 C 10.339844 7.507812 10.441406 7.613281 10.441406 7.714844 C 10.441406 7.816406 10.390625 7.921875 10.238281 7.972656 Z M 10.238281 7.972656 "/>
<path style=" stroke:none;fill-rule:nonzero;fill:rgb(1.960784%,50.588235%,98.823529%);fill-opacity:1;" d="M 11.726562 9.128906 L 7.972656 9.128906 C 7.871094 9.078125 7.769531 8.972656 7.769531 8.871094 C 7.769531 8.769531 7.871094 8.664062 7.972656 8.664062 L 11.675781 8.664062 C 11.78125 8.664062 11.882812 8.769531 11.882812 8.871094 C 11.933594 9.023438 11.832031 9.078125 11.726562 9.128906 Z M 11.726562 9.128906 "/>
<path style=" stroke:none;fill-rule:nonzero;fill:rgb(1.960784%,50.588235%,98.823529%);fill-opacity:1;" d="M 11.726562 10.28125 L 7.972656 10.28125 C 7.871094 10.230469 7.769531 10.128906 7.769531 10.027344 C 7.769531 9.921875 7.871094 9.820312 7.972656 9.820312 L 11.675781 9.820312 C 11.78125 9.820312 11.882812 9.921875 11.882812 10.027344 C 11.933594 10.179688 11.832031 10.230469 11.726562 10.28125 Z M 11.726562 10.28125 "/>
<path style=" stroke:none;fill-rule:nonzero;fill:rgb(1.960784%,50.588235%,98.823529%);fill-opacity:1;" d="M 9.566406 11.4375 L 8.027344 11.4375 C 7.871094 11.386719 7.769531 11.285156 7.769531 11.179688 C 7.769531 11.078125 7.871094 10.976562 7.972656 10.976562 L 9.515625 10.976562 C 9.621094 10.976562 9.722656 11.078125 9.722656 11.179688 C 9.773438 11.335938 9.671875 11.386719 9.566406 11.4375 Z M 9.566406 11.4375 "/>
<path style=" stroke:none;fill-rule:nonzero;fill:rgb(1.960784%,50.588235%,98.823529%);fill-opacity:1;" d="M 6.582031 12.980469 L 5.039062 12.980469 C 4.78125 12.980469 4.578125 12.777344 4.578125 12.519531 L 4.578125 4.445312 C 4.628906 4.1875 4.835938 3.980469 5.089844 3.980469 L 11.417969 3.980469 C 11.621094 3.980469 11.828125 4.1875 11.828125 4.445312 L 11.828125 6.140625 C 11.828125 6.347656 11.621094 6.554688 11.367188 6.554688 C 11.109375 6.554688 10.902344 6.347656 10.902344 6.089844 L 10.902344 4.855469 L 5.503906 4.855469 L 5.503906 12.109375 L 6.582031 12.109375 C 6.839844 12.109375 7.046875 12.3125 7.046875 12.570312 C 7.046875 12.828125 6.839844 12.980469 6.582031 12.980469 Z M 6.582031 12.980469 "/>
<path style=" stroke:none;fill-rule:nonzero;fill:rgb(1.960784%,50.588235%,98.823529%);fill-opacity:1;" d="M 9.507812 5.347656 L 6.9375 5.347656 C 6.472656 5.347656 6.0625 4.9375 6.0625 4.472656 C 6.0625 4.011719 6.472656 3.601562 6.9375 3.601562 L 9.507812 3.601562 C 9.96875 3.601562 10.382812 4.011719 10.382812 4.472656 C 10.382812 4.9375 9.96875 5.347656 9.507812 5.347656 Z M 9.507812 5.347656 "/>
<use xlink:href="#surface5" mask="url(#mask0)"/>
</g>
</svg>
