<?xml version="1.0" encoding="UTF-8"?>
<svg xmlns="http://www.w3.org/2000/svg" xmlns:xlink="http://www.w3.org/1999/xlink" width="px" height="px" viewBox="0 0 18 18" version="1.1">
<defs>
<filter id="alpha" filterUnits="objectBoundingBox" x="0%" y="0%" width="100%" height="100%">
  <feColorMatrix type="matrix" in="SourceGraphic" values="0 0 0 0 1 0 0 0 0 1 0 0 0 0 1 0 0 0 1 0"/>
</filter>
<mask id="mask0">
  <g filter="url(#alpha)">
<rect x="0" y="0" width="18" height="18" style="fill:rgb(0%,0%,0%);fill-opacity:0.4;stroke:none;"/>
  </g>
</mask>
<clipPath id="clip1">
  <rect x="0" y="0" width="18" height="18"/>
</clipPath>
<g id="surface5" clip-path="url(#clip1)">
<path style=" stroke:none;fill-rule:nonzero;fill:rgb(26.27451%,75.294118%,97.254902%);fill-opacity:1;" d="M 18 9 C 18 13.96875 13.96875 18 9 18 C 4.03125 18 0 13.96875 0 9 C 0 4.03125 4.03125 0 9 0 C 13.96875 0 18 4.03125 18 9 Z M 18 9 "/>
</g>
</defs>
<g id="surface1">
<path style=" stroke:none;fill-rule:nonzero;fill:rgb(1.960784%,50.588235%,98.823529%);fill-opacity:1;" d="M 8.792969 14.605469 C 8.691406 14.605469 8.589844 14.554688 8.484375 14.503906 C 8.023438 14.144531 4.113281 10.695312 4.113281 8.28125 C 4.113281 5.707031 6.222656 3.601562 8.792969 3.601562 C 11.367188 3.601562 13.472656 5.707031 13.472656 8.28125 C 13.472656 10.75 9.566406 14.144531 9.101562 14.554688 C 9 14.605469 8.898438 14.605469 8.792969 14.605469 Z M 8.792969 4.527344 C 6.6875 4.527344 5.039062 6.171875 5.039062 8.28125 C 5.039062 9.875 7.507812 12.445312 8.792969 13.578125 C 10.078125 12.445312 12.546875 9.875 12.546875 8.28125 C 12.546875 6.171875 10.851562 4.527344 8.792969 4.527344 Z M 8.792969 4.527344 "/>
<path style=" stroke:none;fill-rule:nonzero;fill:rgb(1.960784%,50.588235%,98.823529%);fill-opacity:1;" d="M 8.765625 10.511719 C 7.53125 10.511719 6.503906 9.535156 6.503906 8.25 C 6.503906 6.964844 7.53125 5.988281 8.765625 5.988281 C 10 5.988281 11.027344 7.015625 11.027344 8.25 C 11.027344 9.535156 10.050781 10.511719 8.765625 10.511719 Z M 8.765625 6.914062 C 8.046875 6.914062 7.429688 7.53125 7.429688 8.25 C 7.429688 8.96875 8.046875 9.640625 8.765625 9.640625 C 9.535156 9.640625 10.152344 9.023438 10.152344 8.25 C 10.152344 7.53125 9.535156 6.914062 8.765625 6.914062 Z M 8.765625 6.914062 "/>
<use xlink:href="#surface5" mask="url(#mask0)"/>
</g>
</svg>
