<?xml version="1.0" encoding="UTF-8"?>
<svg xmlns="http://www.w3.org/2000/svg" xmlns:xlink="http://www.w3.org/1999/xlink" width="px" height="px" viewBox="0 0 18 18" version="1.1">
<g id="surface1">
<path style=" stroke:none;fill-rule:nonzero;fill:rgb(26.27451%,75.294118%,97.254902%);fill-opacity:0.231373;" d="M 18 9 C 18 13.96875 13.96875 18 9 18 C 4.03125 18 0 13.96875 0 9 C 0 4.03125 4.03125 0 9 0 C 13.96875 0 18 4.03125 18 9 Z M 18 9 "/>
<path style=" stroke:none;fill-rule:nonzero;fill:rgb(1.960784%,50.588235%,98.823529%);fill-opacity:1;" d="M 8.777344 14.625 C 8.667969 14.625 8.5625 14.585938 8.480469 14.515625 C 8.035156 14.132812 4.113281 10.722656 4.113281 8.261719 C 4.113281 5.6875 6.203125 3.601562 8.777344 3.601562 C 11.347656 3.601562 13.4375 5.6875 13.4375 8.261719 C 13.4375 10.722656 9.515625 14.136719 9.070312 14.515625 C 8.988281 14.585938 8.882812 14.625 8.777344 14.625 Z M 8.777344 4.507812 C 6.703125 4.511719 5.027344 6.1875 5.023438 8.261719 C 5.023438 9.855469 7.507812 12.421875 8.777344 13.566406 C 10.046875 12.421875 12.527344 9.855469 12.527344 8.261719 C 12.527344 6.1875 10.847656 4.511719 8.777344 4.507812 Z M 8.777344 4.507812 "/>
<path style=" stroke:none;fill-rule:nonzero;fill:rgb(1.960784%,50.588235%,98.823529%);fill-opacity:1;" d="M 8.773438 10.535156 C 7.519531 10.535156 6.503906 9.515625 6.503906 8.261719 C 6.503906 7.003906 7.519531 5.988281 8.773438 5.988281 C 10.03125 5.988281 11.046875 7.003906 11.046875 8.261719 C 11.046875 9.515625 10.03125 10.53125 8.773438 10.535156 Z M 8.773438 6.898438 C 8.023438 6.898438 7.410156 7.507812 7.410156 8.261719 C 7.410156 9.015625 8.023438 9.625 8.773438 9.625 C 9.527344 9.625 10.140625 9.015625 10.140625 8.261719 C 10.136719 7.507812 9.527344 6.898438 8.773438 6.898438 Z M 8.773438 6.898438 "/>
</g>
</svg>
