<?xml version="1.0" encoding="UTF-8"?>
<svg xmlns="http://www.w3.org/2000/svg" xmlns:xlink="http://www.w3.org/1999/xlink" width="px" height="px" viewBox="0 0 27 27" version="1.1">
<g id="surface1">
<path style=" stroke:none;fill-rule:nonzero;fill:rgb(48.235294%,48.235294%,48.235294%);fill-opacity:1;" d="M 4.09375 26.097656 C 2.695312 25.097656 2.296875 23.152344 3.292969 21.753906 C 3.34375 21.707031 3.34375 21.65625 3.394531 21.65625 L 11.929688 9.476562 L 13.226562 10.375 L 4.691406 22.554688 C 3.445312 24.351562 5.839844 25.949219 7.085938 24.203125 L 15.570312 12.074219 L 16.867188 12.972656 L 8.382812 25.148438 C 7.4375 26.597656 5.539062 26.996094 4.09375 26.097656 Z M 4.09375 26.097656 "/>
<path style=" stroke:none;fill-rule:nonzero;fill:rgb(48.235294%,48.235294%,48.235294%);fill-opacity:1;" d="M 21.734375 15.023438 L 9.558594 6.488281 C 9.007812 6.089844 8.859375 5.289062 9.257812 4.691406 L 11.902344 0.949219 C 12.304688 0.398438 13.101562 0.25 13.699219 0.648438 L 22.984375 7.136719 C 23.832031 7.734375 24.332031 8.734375 24.332031 9.78125 C 24.082031 14.125 24.28125 14.621094 23.332031 15.121094 C 22.785156 15.371094 22.183594 15.320312 21.734375 15.023438 Z M 22.632812 13.675781 L 22.183594 14.324219 L 22.632812 13.675781 C 22.632812 10.480469 19.441406 13.675781 22.632812 13.675781 Z M 10.757812 5.339844 L 22.433594 13.523438 C 22.632812 9.53125 22.832031 9.082031 21.984375 8.484375 L 13 2.195312 Z M 10.757812 5.339844 "/>
<path style=" stroke:none;fill-rule:nonzero;fill:rgb(48.235294%,48.235294%,48.235294%);fill-opacity:1;" d="M 22.179688 5.40625 L 20.882812 4.507812 C 21.882812 3.058594 19.535156 1.410156 18.488281 2.859375 L 17.191406 1.910156 C 19.4375 -1.28125 24.425781 2.210938 22.179688 5.40625 Z M 22.179688 5.40625 "/>
</g>
</svg>
