<?xml version="1.0" encoding="UTF-8"?>
<svg xmlns="http://www.w3.org/2000/svg" xmlns:xlink="http://www.w3.org/1999/xlink" width="px" height="px" viewBox="0 0 27 27" version="1.1">
<g id="surface1">
<path style=" stroke:none;fill-rule:nonzero;fill:rgb(48.235294%,48.235294%,48.235294%);fill-opacity:1;" d="M 3.042969 9.082031 C 3.691406 9.582031 4.242188 10.03125 4.839844 10.429688 C 5.390625 10.78125 5.441406 11.277344 5.441406 11.878906 C 5.390625 12.976562 5.390625 14.023438 5.441406 15.121094 C 5.441406 15.722656 5.339844 16.171875 4.839844 16.519531 C 4.242188 16.917969 3.691406 17.367188 2.996094 17.867188 C 3.445312 18.617188 3.894531 19.414062 4.390625 20.164062 C 4.441406 20.261719 4.742188 20.261719 4.890625 20.210938 C 5.488281 20.011719 6.039062 19.761719 6.585938 19.464844 C 7.085938 19.214844 7.484375 19.3125 7.886719 19.613281 C 8.882812 20.210938 9.980469 20.761719 10.980469 21.410156 C 11.328125 21.660156 11.628906 22.058594 11.777344 22.457031 C 11.929688 23.007812 11.976562 23.65625 11.976562 24.253906 C 11.976562 24.605469 12.128906 24.753906 12.476562 24.753906 C 13.175781 24.753906 13.824219 24.804688 14.523438 24.753906 C 14.671875 24.753906 14.972656 24.503906 14.972656 24.304688 C 15.070312 23.707031 15.121094 23.105469 15.171875 22.507812 C 15.222656 21.960938 15.519531 21.660156 15.96875 21.359375 C 17.019531 20.8125 18.066406 20.164062 19.066406 19.5625 C 19.464844 19.3125 19.863281 19.214844 20.3125 19.414062 C 21.011719 19.714844 21.660156 20.011719 22.457031 20.363281 C 22.957031 19.515625 23.40625 18.714844 23.90625 17.867188 C 23.257812 17.367188 22.707031 16.917969 22.109375 16.519531 C 21.660156 16.21875 21.511719 15.820312 21.511719 15.273438 C 21.558594 14.074219 21.511719 12.875 21.511719 11.679688 C 21.511719 11.128906 21.660156 10.730469 22.109375 10.429688 C 22.707031 10.03125 23.257812 9.582031 23.90625 9.132812 C 23.457031 8.285156 22.957031 7.484375 22.457031 6.636719 C 21.710938 6.9375 21.0625 7.238281 20.363281 7.535156 C 19.613281 7.835938 19.015625 7.6875 18.765625 7.085938 C 18.515625 6.488281 18.816406 5.988281 19.5625 5.640625 C 20.363281 5.289062 21.210938 4.941406 22.007812 4.542969 C 22.558594 4.292969 23.007812 4.34375 23.40625 4.792969 C 24.65625 6.089844 25.503906 7.636719 26 9.382812 C 26.101562 9.683594 25.800781 10.179688 25.550781 10.480469 C 25.054688 10.980469 24.453125 11.277344 23.90625 11.726562 C 23.757812 11.878906 23.65625 12.128906 23.605469 12.378906 C 23.554688 13.175781 23.554688 14.023438 23.605469 14.824219 C 23.605469 15.023438 23.707031 15.320312 23.90625 15.421875 C 24.355469 15.820312 24.855469 16.171875 25.351562 16.46875 C 26 16.867188 26.101562 17.417969 25.902344 18.066406 C 25.351562 19.664062 24.503906 21.109375 23.40625 22.359375 C 23.058594 22.757812 22.609375 22.757812 22.109375 22.558594 C 21.511719 22.308594 20.910156 22.058594 20.363281 21.757812 C 20.0625 21.609375 19.8125 21.609375 19.464844 21.808594 C 18.816406 22.257812 18.117188 22.558594 17.46875 23.007812 C 17.269531 23.15625 17.070312 23.40625 17.019531 23.65625 C 16.917969 24.207031 16.867188 24.804688 16.820312 25.402344 C 16.769531 26.050781 16.46875 26.5 15.820312 26.652344 C 14.125 27.050781 12.476562 27 10.78125 26.652344 C 10.28125 26.550781 9.929688 26.152344 9.882812 25.601562 C 9.78125 24.855469 9.929688 23.957031 9.582031 23.40625 C 9.234375 22.859375 8.335938 22.707031 7.785156 22.207031 C 7.085938 21.609375 6.4375 21.609375 5.738281 22.058594 C 5.589844 22.160156 5.441406 22.207031 5.289062 22.257812 C 3.894531 22.859375 3.59375 22.808594 2.746094 21.558594 C 2.046875 20.511719 1.449219 19.363281 0.898438 18.214844 C 0.5 17.417969 0.648438 16.917969 1.449219 16.46875 C 2.644531 15.722656 3.34375 14.921875 3.195312 13.324219 C 3.09375 12.277344 2.894531 11.578125 1.996094 11.03125 C 0.550781 10.082031 0.449219 9.683594 1.246094 8.136719 C 1.796875 7.035156 2.546875 5.988281 3.242188 4.941406 C 3.691406 4.242188 4.242188 4.191406 4.890625 4.492188 C 5.539062 4.792969 6.238281 5.339844 6.886719 5.289062 C 7.535156 5.289062 8.085938 4.589844 8.785156 4.34375 C 9.730469 4.042969 9.929688 3.394531 9.980469 2.496094 C 10.082031 0.597656 10.28125 0.347656 12.175781 0.199219 C 13.425781 0.101562 14.671875 0.25 15.96875 0.347656 C 16.621094 0.398438 16.96875 0.796875 17.019531 1.449219 C 17.117188 2.445312 17.21875 3.394531 17.316406 4.390625 C 17.367188 5.089844 17.019531 5.539062 16.371094 5.589844 C 15.769531 5.640625 15.371094 5.289062 15.273438 4.589844 C 15.222656 3.992188 15.121094 3.394531 15.121094 2.792969 C 15.121094 2.445312 14.921875 2.246094 14.574219 2.246094 C 14.472656 2.246094 14.421875 2.246094 14.324219 2.246094 C 12.128906 2.097656 12.128906 2.097656 11.929688 4.242188 C 11.878906 5.039062 11.527344 5.441406 10.78125 5.789062 C 9.832031 6.238281 8.933594 6.789062 8.085938 7.386719 C 7.585938 7.734375 7.136719 7.835938 6.585938 7.585938 C 6.039062 7.335938 5.488281 7.085938 4.941406 6.886719 C 4.792969 6.835938 4.441406 6.9375 4.34375 7.035156 C 3.894531 7.585938 3.492188 8.335938 3.042969 9.082031 Z M 3.042969 9.082031 "/>
<path style=" stroke:none;fill-rule:nonzero;fill:rgb(48.235294%,48.235294%,48.235294%);fill-opacity:1;" d="M 10.429688 13.476562 C 10.429688 11.878906 11.828125 10.429688 13.476562 10.429688 C 15.121094 10.429688 16.621094 11.929688 16.570312 13.574219 C 16.570312 15.171875 15.121094 16.621094 13.523438 16.621094 C 11.878906 16.621094 10.429688 15.121094 10.429688 13.476562 Z M 14.523438 13.523438 C 14.523438 12.976562 14.023438 12.476562 13.476562 12.476562 C 12.976562 12.476562 12.476562 13.027344 12.476562 13.625 C 12.476562 14.125 12.925781 14.523438 13.476562 14.523438 C 14.023438 14.472656 14.523438 14.023438 14.523438 13.523438 Z M 14.523438 13.523438 "/>
</g>
</svg>
