<?xml version="1.0" encoding="UTF-8"?>
<svg xmlns="http://www.w3.org/2000/svg" xmlns:xlink="http://www.w3.org/1999/xlink" width="px" height="px" viewBox="0 0 27 27" version="1.1">
<g id="surface1">
<path style=" stroke:none;fill-rule:nonzero;fill:rgb(48.235294%,48.235294%,48.235294%);fill-opacity:1;" d="M 26.652344 3.742188 C 26.652344 11.128906 26.652344 18.464844 26.652344 25.851562 C 25.851562 27 25.402344 27.101562 24.003906 26.5 C 22.65625 25.851562 21.261719 25.253906 19.914062 24.605469 C 19.515625 24.40625 19.164062 24.40625 18.765625 24.605469 C 17.316406 25.304688 15.820312 25.953125 14.375 26.652344 C 13.773438 26.949219 13.226562 26.949219 12.625 26.652344 C 11.179688 25.953125 9.730469 25.351562 8.285156 24.65625 C 7.835938 24.453125 7.484375 24.453125 7.035156 24.65625 C 5.589844 25.351562 4.09375 26 2.644531 26.652344 C 1.449219 27.199219 0.449219 26.601562 0.398438 25.402344 C 0.398438 18.316406 0.398438 11.230469 0.398438 4.140625 C 0.398438 1.945312 2.246094 0.300781 4.691406 0.25 C 5.589844 0.199219 6.539062 0.25 7.4375 0.25 C 12.328125 0.25 17.269531 0.25 22.160156 0.25 C 24.503906 0.25 26 1.398438 26.550781 3.492188 C 26.550781 3.542969 26.601562 3.644531 26.652344 3.742188 Z M 23.804688 23.40625 C 23.804688 23.058594 23.804688 22.859375 23.804688 22.609375 C 23.804688 16.570312 23.804688 10.53125 23.804688 4.492188 C 23.804688 3.242188 23.257812 2.695312 21.859375 2.695312 C 16.269531 2.695312 10.730469 2.695312 5.140625 2.695312 C 3.742188 2.695312 3.195312 3.242188 3.195312 4.492188 C 3.195312 10.53125 3.195312 16.570312 3.195312 22.609375 C 3.195312 22.808594 3.195312 23.058594 3.195312 23.40625 C 3.542969 23.257812 3.742188 23.207031 3.992188 23.105469 C 4.890625 22.707031 5.839844 22.308594 6.738281 21.859375 C 7.386719 21.558594 7.984375 21.558594 8.632812 21.859375 C 10.082031 22.558594 11.527344 23.15625 12.976562 23.855469 C 13.375 24.054688 13.722656 24.054688 14.125 23.855469 C 15.570312 23.15625 17.070312 22.507812 18.515625 21.808594 C 19.113281 21.511719 19.664062 21.511719 20.261719 21.808594 C 21.210938 22.257812 22.160156 22.707031 23.15625 23.105469 C 23.257812 23.257812 23.507812 23.308594 23.804688 23.40625 Z M 23.804688 23.40625 "/>
<path style=" stroke:none;fill-rule:nonzero;fill:rgb(48.235294%,48.235294%,48.235294%);fill-opacity:1;" d="M 11.328125 10.878906 C 12.175781 10.878906 12.828125 10.878906 13.476562 10.878906 C 16.621094 10.929688 19.214844 12.925781 19.914062 15.921875 C 20.164062 16.917969 20.113281 17.964844 20.113281 19.015625 C 20.113281 19.664062 19.515625 20.113281 18.816406 20.113281 C 18.117188 20.113281 17.617188 19.613281 17.566406 18.863281 C 17.515625 18.414062 17.566406 17.964844 17.566406 17.46875 C 17.566406 15.320312 15.921875 13.574219 13.773438 13.425781 C 13.027344 13.375 12.277344 13.425781 11.378906 13.425781 C 11.578125 13.675781 11.679688 13.824219 11.777344 13.925781 C 12.226562 14.375 12.726562 14.824219 13.125 15.320312 C 13.625 15.871094 13.574219 16.570312 13.074219 17.070312 C 12.625 17.515625 11.878906 17.617188 11.378906 17.117188 C 9.980469 15.769531 8.585938 14.375 7.1875 12.976562 C 6.6875 12.476562 6.738281 11.777344 7.238281 11.277344 C 8.585938 9.929688 9.929688 8.585938 11.277344 7.238281 C 11.828125 6.6875 12.578125 6.738281 13.074219 7.238281 C 13.574219 7.734375 13.625 8.484375 13.074219 9.035156 C 12.578125 9.632812 12.027344 10.179688 11.328125 10.878906 Z M 11.328125 10.878906 "/>
</g>
</svg>
