<?xml version="1.0" encoding="UTF-8"?>
<svg xmlns="http://www.w3.org/2000/svg" xmlns:xlink="http://www.w3.org/1999/xlink" width="px" height="px" viewBox="0 0 27 27" version="1.1">
<g id="surface1">
<path style=" stroke:none;fill-rule:nonzero;fill:rgb(48.235294%,48.235294%,48.235294%);fill-opacity:1;" d="M 0.699219 4.066406 C 1.046875 4.066406 1.347656 3.769531 1.347656 3.367188 L 1.347656 1.371094 L 3.394531 1.371094 C 3.742188 1.371094 4.042969 1.074219 4.042969 0.671875 C 4.042969 0.324219 3.742188 0.0234375 3.394531 0.0234375 L 0.699219 0.0234375 C 0.347656 0.0234375 0.0507812 0.324219 0.0507812 0.671875 L 0.0507812 3.367188 C 0.0507812 3.769531 0.347656 4.066406 0.699219 4.066406 Z M 0.699219 4.066406 "/>
<path style=" stroke:none;fill-rule:nonzero;fill:rgb(48.235294%,48.235294%,48.235294%);fill-opacity:1;" d="M 26.300781 0.0234375 L 23.605469 0.0234375 C 23.257812 0.0234375 22.957031 0.324219 22.957031 0.722656 C 22.957031 1.074219 23.257812 1.371094 23.605469 1.371094 L 25.601562 1.371094 L 25.601562 3.417969 C 25.601562 3.769531 25.902344 4.117188 26.25 4.117188 C 26.601562 4.117188 26.949219 3.816406 26.949219 3.417969 L 26.949219 0.671875 C 27 0.324219 26.699219 0.0234375 26.300781 0.0234375 Z M 26.300781 0.0234375 "/>
<path style=" stroke:none;fill-rule:nonzero;fill:rgb(48.235294%,48.235294%,48.235294%);fill-opacity:1;" d="M 3.394531 25.628906 L 1.398438 25.628906 L 1.398438 23.582031 C 1.398438 23.230469 1.097656 22.933594 0.699219 22.933594 C 0.347656 22.933594 0.0507812 23.230469 0.0507812 23.582031 L 0.0507812 26.277344 C 0.0507812 26.625 0.347656 26.925781 0.699219 26.925781 L 3.394531 26.925781 C 3.742188 26.925781 4.09375 26.625 4.09375 26.277344 C 4.09375 25.925781 3.792969 25.628906 3.394531 25.628906 Z M 3.394531 25.628906 "/>
<path style=" stroke:none;fill-rule:nonzero;fill:rgb(48.235294%,48.235294%,48.235294%);fill-opacity:1;" d="M 26.300781 22.933594 C 25.953125 22.933594 25.652344 23.230469 25.652344 23.582031 L 25.652344 25.628906 L 23.605469 25.628906 C 23.257812 25.628906 22.957031 25.925781 22.957031 26.277344 C 22.957031 26.625 23.257812 26.976562 23.605469 26.976562 L 26.300781 26.976562 C 26.652344 26.976562 26.949219 26.675781 26.949219 26.328125 L 26.949219 23.632812 C 27 23.230469 26.699219 22.933594 26.300781 22.933594 Z M 26.300781 22.933594 "/>
<path style=" stroke:none;fill-rule:nonzero;fill:rgb(48.235294%,48.235294%,48.235294%);fill-opacity:1;" d="M 4.09375 7.460938 C 4.09375 7.808594 4.390625 8.160156 4.742188 8.160156 L 7.4375 8.160156 C 7.785156 8.160156 8.136719 7.859375 8.136719 7.460938 L 8.136719 4.765625 C 8.136719 4.417969 7.835938 4.066406 7.484375 4.066406 L 4.792969 4.066406 C 4.441406 4.066406 4.09375 4.367188 4.09375 4.714844 Z M 5.441406 5.414062 L 6.789062 5.414062 L 6.789062 6.761719 L 5.441406 6.761719 Z M 5.441406 5.414062 "/>
<path style=" stroke:none;fill-rule:nonzero;fill:rgb(48.235294%,48.235294%,48.235294%);fill-opacity:1;" d="M 19.5625 8.109375 L 22.257812 8.109375 C 22.609375 8.109375 22.90625 7.808594 22.90625 7.410156 L 22.90625 4.714844 C 22.90625 4.367188 22.609375 4.066406 22.257812 4.015625 L 19.5625 4.015625 C 19.214844 4.015625 18.863281 4.316406 18.863281 4.667969 L 18.863281 7.363281 C 18.914062 7.808594 19.214844 8.109375 19.5625 8.109375 Z M 20.261719 5.414062 L 21.609375 5.414062 L 21.609375 6.761719 L 20.261719 6.761719 Z M 20.261719 5.414062 "/>
<path style=" stroke:none;fill-rule:nonzero;fill:rgb(48.235294%,48.235294%,48.235294%);fill-opacity:1;" d="M 7.4375 18.890625 L 4.742188 18.890625 C 4.390625 18.890625 4.042969 19.191406 4.042969 19.539062 L 4.042969 22.234375 C 4.042969 22.582031 4.34375 22.882812 4.742188 22.882812 L 7.4375 22.882812 C 7.785156 22.882812 8.136719 22.582031 8.136719 22.234375 L 8.136719 19.539062 C 8.136719 19.191406 7.835938 18.890625 7.4375 18.890625 Z M 6.789062 21.585938 L 5.441406 21.585938 L 5.441406 20.238281 L 6.789062 20.238281 Z M 6.789062 21.585938 "/>
<path style=" stroke:none;fill-rule:nonzero;fill:rgb(48.235294%,48.235294%,48.235294%);fill-opacity:1;" d="M 19.5625 21.585938 L 17.515625 21.585938 L 17.515625 19.539062 C 17.515625 19.191406 17.21875 18.890625 16.820312 18.890625 C 16.46875 18.890625 16.171875 19.191406 16.171875 19.539062 L 16.171875 22.234375 C 16.171875 22.582031 16.46875 22.882812 16.820312 22.882812 L 19.515625 22.882812 C 19.863281 22.882812 20.164062 22.582031 20.164062 22.234375 C 20.261719 21.882812 19.964844 21.585938 19.5625 21.585938 Z M 19.5625 21.585938 "/>
<path style=" stroke:none;fill-rule:nonzero;fill:rgb(48.235294%,48.235294%,48.235294%);fill-opacity:1;" d="M 22.957031 18.242188 C 22.957031 17.890625 22.65625 17.542969 22.308594 17.542969 C 21.960938 17.542969 21.609375 17.84375 21.609375 18.242188 L 21.609375 22.285156 C 21.609375 22.632812 21.910156 22.984375 22.257812 22.984375 C 22.609375 22.984375 22.957031 22.683594 22.957031 22.285156 Z M 22.957031 18.242188 "/>
<path style=" stroke:none;fill-rule:nonzero;fill:rgb(48.235294%,48.235294%,48.235294%);fill-opacity:1;" d="M 22.957031 15.546875 C 22.957031 15.195312 22.65625 14.898438 22.308594 14.847656 L 19.613281 14.847656 C 19.265625 14.847656 18.914062 15.148438 18.914062 15.496094 L 18.914062 19.539062 C 18.914062 19.886719 19.214844 20.1875 19.5625 20.1875 C 19.914062 20.1875 20.261719 19.886719 20.261719 19.539062 L 20.261719 16.144531 L 22.308594 16.144531 C 22.65625 16.195312 22.957031 15.894531 22.957031 15.546875 Z M 22.957031 15.546875 "/>
<path style=" stroke:none;fill-rule:nonzero;fill:rgb(48.235294%,48.235294%,48.235294%);fill-opacity:1;" d="M 16.867188 17.542969 C 17.21875 17.542969 17.515625 17.242188 17.515625 16.84375 L 17.515625 15.496094 C 17.515625 15.148438 17.21875 14.847656 16.867188 14.847656 L 12.828125 14.847656 C 12.476562 14.847656 12.128906 15.148438 12.128906 15.546875 C 12.128906 15.894531 12.425781 16.195312 12.828125 16.195312 L 16.171875 16.195312 L 16.171875 16.894531 C 16.21875 17.242188 16.519531 17.542969 16.867188 17.542969 Z M 16.867188 17.542969 "/>
<path style=" stroke:none;fill-rule:nonzero;fill:rgb(48.235294%,48.235294%,48.235294%);fill-opacity:1;" d="M 10.132812 20.238281 L 11.480469 20.238281 C 11.828125 20.238281 12.175781 19.9375 12.175781 19.539062 C 12.175781 19.191406 11.878906 18.890625 11.480469 18.890625 L 10.132812 18.890625 C 9.78125 18.890625 9.433594 19.191406 9.433594 19.539062 C 9.484375 19.9375 9.78125 20.238281 10.132812 20.238281 Z M 10.132812 20.238281 "/>
<path style=" stroke:none;fill-rule:nonzero;fill:rgb(48.235294%,48.235294%,48.235294%);fill-opacity:1;" d="M 14.171875 17.542969 C 13.824219 17.542969 13.476562 17.84375 13.476562 18.242188 L 13.476562 21.585938 L 10.082031 21.585938 C 9.730469 21.585938 9.382812 21.882812 9.382812 22.234375 C 9.382812 22.582031 9.683594 22.933594 10.082031 22.933594 L 14.125 22.933594 C 14.472656 22.933594 14.824219 22.632812 14.824219 22.285156 L 14.824219 18.242188 C 14.871094 17.84375 14.574219 17.542969 14.171875 17.542969 Z M 14.171875 17.542969 "/>
<path style=" stroke:none;fill-rule:nonzero;fill:rgb(48.235294%,48.235294%,48.235294%);fill-opacity:1;" d="M 4.742188 14.847656 C 4.390625 14.847656 4.042969 15.148438 4.042969 15.546875 L 4.042969 16.894531 C 4.042969 17.242188 4.34375 17.542969 4.691406 17.542969 L 10.082031 17.542969 C 10.429688 17.542969 10.78125 17.242188 10.78125 16.894531 L 10.78125 15.546875 C 10.78125 15.195312 10.480469 14.847656 10.082031 14.847656 C 9.683594 14.847656 9.484375 15.148438 9.484375 15.546875 L 9.484375 16.195312 L 5.441406 16.195312 L 5.441406 15.546875 C 5.441406 15.148438 5.140625 14.847656 4.742188 14.847656 Z M 4.742188 14.847656 "/>
<path style=" stroke:none;fill-rule:nonzero;fill:rgb(48.235294%,48.235294%,48.235294%);fill-opacity:1;" d="M 10.132812 5.414062 L 16.171875 5.414062 L 16.171875 7.460938 C 16.171875 7.808594 16.46875 8.160156 16.820312 8.160156 C 17.167969 8.160156 17.515625 7.859375 17.515625 7.460938 L 17.515625 4.765625 C 17.515625 4.417969 17.21875 4.117188 16.867188 4.066406 L 10.132812 4.066406 C 9.78125 4.066406 9.433594 4.367188 9.433594 4.714844 C 9.484375 5.117188 9.78125 5.414062 10.132812 5.414062 Z M 10.132812 5.414062 "/>
<path style=" stroke:none;fill-rule:nonzero;fill:rgb(48.235294%,48.235294%,48.235294%);fill-opacity:1;" d="M 10.132812 8.109375 L 14.171875 8.109375 C 14.523438 8.109375 14.871094 7.808594 14.871094 7.460938 C 14.871094 7.113281 14.574219 6.761719 14.222656 6.761719 L 10.179688 6.761719 C 9.832031 6.761719 9.484375 7.0625 9.484375 7.410156 C 9.484375 7.808594 9.78125 8.109375 10.132812 8.109375 Z M 10.132812 8.109375 "/>
<path style=" stroke:none;fill-rule:nonzero;fill:rgb(48.235294%,48.235294%,48.235294%);fill-opacity:1;" d="M 19.5625 10.804688 C 19.914062 10.804688 20.210938 10.503906 20.210938 10.105469 C 20.210938 9.707031 19.914062 9.40625 19.5625 9.40625 L 15.519531 9.40625 C 15.171875 9.40625 14.871094 9.707031 14.871094 10.105469 C 14.871094 10.503906 15.171875 10.804688 15.519531 10.804688 Z M 19.5625 10.804688 "/>
<path style=" stroke:none;fill-rule:nonzero;fill:rgb(48.235294%,48.235294%,48.235294%);fill-opacity:1;" d="M 24.953125 13.5 C 25.304688 13.5 25.601562 13.199219 25.601562 12.800781 C 25.601562 12.402344 25.304688 12.101562 24.953125 12.101562 L 22.957031 12.101562 L 22.957031 10.105469 C 22.957031 9.757812 22.65625 9.40625 22.257812 9.40625 C 21.910156 9.40625 21.609375 9.707031 21.609375 10.105469 L 21.609375 12.101562 L 13.523438 12.101562 L 13.523438 10.105469 C 13.523438 9.757812 13.226562 9.40625 12.828125 9.40625 C 12.425781 9.40625 12.128906 9.707031 12.128906 10.105469 L 12.128906 12.101562 L 5.441406 12.101562 L 5.441406 10.753906 L 10.179688 10.753906 C 10.53125 10.753906 10.878906 10.457031 10.878906 10.054688 C 10.878906 9.65625 10.582031 9.359375 10.179688 9.359375 L 4.742188 9.359375 C 4.390625 9.359375 4.042969 9.65625 4.042969 10.054688 L 4.042969 12.050781 L 2.046875 12.050781 C 1.695312 12.050781 1.347656 12.351562 1.347656 12.75 C 1.347656 13.152344 1.695312 13.5 2.046875 13.5 Z M 24.953125 13.5 "/>
</g>
</svg>
