<?xml version="1.0" encoding="UTF-8"?>
<svg xmlns="http://www.w3.org/2000/svg" xmlns:xlink="http://www.w3.org/1999/xlink" width="px" height="px" viewBox="0 0 18 18" version="1.1">
<defs>
<filter id="alpha" filterUnits="objectBoundingBox" x="0%" y="0%" width="100%" height="100%">
  <feColorMatrix type="matrix" in="SourceGraphic" values="0 0 0 0 1 0 0 0 0 1 0 0 0 0 1 0 0 0 1 0"/>
</filter>
<mask id="mask0">
  <g filter="url(#alpha)">
<rect x="0" y="0" width="18" height="18" style="fill:rgb(0%,0%,0%);fill-opacity:0.4;stroke:none;"/>
  </g>
</mask>
<clipPath id="clip1">
  <rect x="0" y="0" width="18" height="18"/>
</clipPath>
<g id="surface5" clip-path="url(#clip1)">
<path style=" stroke:none;fill-rule:nonzero;fill:rgb(26.27451%,75.294118%,97.254902%);fill-opacity:1;" d="M 18 9 C 18 13.96875 13.96875 18 9 18 C 4.03125 18 0 13.96875 0 9 C 0 4.03125 4.03125 0 9 0 C 13.96875 0 18 4.03125 18 9 Z M 18 9 "/>
</g>
</defs>
<g id="surface1">
<use xlink:href="#surface5" mask="url(#mask0)"/>
<path style=" stroke:none;fill-rule:nonzero;fill:rgb(1.960784%,50.588235%,98.823529%);fill-opacity:1;" d="M 13.457031 3.996094 L 4.40625 3.996094 C 4.199219 3.996094 3.996094 4.148438 3.996094 4.40625 L 3.996094 13.457031 C 3.996094 13.664062 4.148438 13.871094 4.40625 13.871094 L 13.457031 13.871094 C 13.664062 13.871094 13.871094 13.714844 13.871094 13.457031 L 13.871094 4.40625 C 13.871094 4.148438 13.664062 3.996094 13.457031 3.996094 Z M 13.046875 13.046875 L 4.816406 13.046875 L 4.816406 4.816406 L 13.097656 4.816406 Z M 13.046875 13.046875 "/>
<path style=" stroke:none;fill-rule:nonzero;fill:rgb(1.960784%,50.588235%,98.823529%);fill-opacity:1;" d="M 5.691406 5.382812 L 12.222656 5.382812 L 12.222656 6.875 L 5.691406 6.875 Z M 5.691406 5.382812 "/>
<path style=" stroke:none;fill-rule:nonzero;fill:rgb(1.960784%,50.588235%,98.823529%);fill-opacity:1;" d="M 5.691406 9.910156 L 12.222656 9.910156 L 12.222656 11.402344 L 5.691406 11.402344 Z M 5.691406 9.910156 "/>
<path style=" stroke:none;fill-rule:nonzero;fill:rgb(1.960784%,50.588235%,98.823529%);fill-opacity:1;" d="M 5.691406 7.335938 L 12.222656 7.335938 L 12.222656 8.007812 L 5.691406 8.007812 Z M 5.691406 7.335938 "/>
<path style=" stroke:none;fill-rule:nonzero;fill:rgb(1.960784%,50.588235%,98.823529%);fill-opacity:1;" d="M 5.691406 8.726562 L 12.222656 8.726562 L 12.222656 9.394531 L 5.691406 9.394531 Z M 5.691406 8.726562 "/>
<path style=" stroke:none;fill-rule:nonzero;fill:rgb(1.960784%,50.588235%,98.823529%);fill-opacity:1;" d="M 5.691406 11.863281 L 12.222656 11.863281 L 12.222656 12.53125 L 5.691406 12.53125 Z M 5.691406 11.863281 "/>
</g>
</svg>
