<?xml version="1.0" encoding="UTF-8"?>
<svg xmlns="http://www.w3.org/2000/svg" xmlns:xlink="http://www.w3.org/1999/xlink" width="px" height="px" viewBox="0 0 36 36" version="1.1">
<g id="surface1">
<path style=" stroke:none;fill-rule:nonzero;fill:rgb(77.647059%,100%,84.705882%);fill-opacity:1;" d="M 35.492188 23.914062 C 35.492188 29.664062 30.832031 34.324219 25.082031 34.324219 C 19.335938 34.324219 14.675781 29.664062 14.675781 23.914062 C 14.675781 18.167969 19.335938 13.507812 25.082031 13.507812 C 30.832031 13.507812 35.492188 18.167969 35.492188 23.914062 Z M 35.492188 23.914062 "/>
<path style="fill:none;stroke-width:2;stroke-linecap:butt;stroke-linejoin:miter;stroke:rgb(48.627451%,100%,74.509804%);stroke-opacity:1;stroke-miterlimit:4;" d="M -230.100217 -23.902582 C -230.100217 -13.132183 -238.831934 -4.400467 -249.602333 -4.400467 C -260.372732 -4.400467 -269.096756 -13.132183 -269.096756 -23.902582 C -269.096756 -34.672982 -260.372732 -43.397005 -249.602333 -43.397005 C -238.831934 -43.397005 -230.100217 -34.672982 -230.100217 -23.902582 Z M -230.100217 -23.902582 " transform="matrix(0.507757,0,0,0.507757,151.819464,36.050776)"/>
<path style="fill:none;stroke-width:2;stroke-linecap:butt;stroke-linejoin:miter;stroke:rgb(94.901961%,45.098039%,8.627451%);stroke-opacity:1;stroke-miterlimit:10;" d="M 13.701487 16.101747 L 44.197103 16.101747 C 50.397776 16.101747 55.398318 21.102289 55.398318 27.302962 L 55.398318 53.29809 C 55.398318 59.498763 50.397776 64.499306 44.197103 64.499306 L 13.701487 64.499306 C 7.500814 64.499306 2.500271 59.498763 2.500271 53.29809 L 2.500271 27.302962 C 2.500271 21.102289 7.500814 16.101747 13.701487 16.101747 Z M 13.701487 16.101747 " transform="matrix(0.507757,0,0,0.507757,0,0)"/>
<path style="fill:none;stroke-width:2;stroke-linecap:butt;stroke-linejoin:miter;stroke:rgb(94.901961%,45.098039%,8.627451%);stroke-opacity:1;stroke-miterlimit:10;" d="M 20.502224 44.197103 C 26.902919 44.197103 30.003255 48.197537 31.603429 51.897938 C 32.103483 53.198079 31.503418 54.798253 30.203277 55.298307 C 29.903244 55.398318 29.503201 55.498329 29.103158 55.498329 L 12.9014 55.498329 M 20.502224 44.197103 C 18.401997 44.197103 13.601476 42.796951 13.601476 37.196343 C 13.601476 33.003581 16.40178 30.203277 20.502224 30.203277 C 24.602669 30.203277 27.402973 33.003581 27.402973 37.196343 C 27.402973 39.996647 25.402756 44.197103 20.502224 44.197103 Z M 20.502224 44.197103 C 13.601476 44.197103 10.60115 48.797602 9.000977 52.598014 " transform="matrix(0.507757,0,0,0.507757,0,0)"/>
<path style=" stroke:none;fill-rule:nonzero;fill:rgb(94.901961%,45.098039%,8.627451%);fill-opacity:1;" d="M 9.394531 6.5 L 12.542969 10.410156 L 16.65625 10.410156 L 20.054688 6.601562 Z M 9.394531 6.5 "/>
<path style=" stroke:none;fill-rule:nonzero;fill:rgb(94.901961%,45.098039%,8.627451%);fill-opacity:1;" d="M 15.132812 12.746094 L 25.386719 12.746094 L 25.386719 15.285156 L 15.132812 15.285156 Z M 15.132812 12.746094 "/>
<path style=" stroke:none;fill-rule:nonzero;fill:rgb(94.901961%,45.098039%,8.627451%);fill-opacity:1;" d="M 15.132812 16.148438 L 20.460938 16.148438 L 20.460938 17.417969 L 15.132812 17.417969 Z M 15.132812 16.148438 "/>
</g>
</svg>
