<?xml version="1.0" encoding="UTF-8"?>
<svg xmlns="http://www.w3.org/2000/svg" xmlns:xlink="http://www.w3.org/1999/xlink" width="px" height="px" viewBox="0 0 36 36" version="1.1">
<g id="surface1">
<path style=" stroke:none;fill-rule:nonzero;fill:rgb(92.941176%,76.862745%,100%);fill-opacity:1;" d="M 35.488281 23.914062 C 35.488281 29.664062 30.828125 34.324219 25.078125 34.324219 C 19.332031 34.324219 14.671875 29.664062 14.671875 23.914062 C 14.671875 18.167969 19.332031 13.507812 25.078125 13.507812 C 30.828125 13.507812 35.488281 18.167969 35.488281 23.914062 Z M 35.488281 23.914062 "/>
<path style="fill:none;stroke-width:2;stroke-linecap:butt;stroke-linejoin:miter;stroke:rgb(85.882353%,53.72549%,100%);stroke-opacity:1;stroke-miterlimit:4;" d="M 24.39909 32.597418 C 24.39909 43.367817 15.667373 52.099533 4.896974 52.099533 C -5.865732 52.099533 -14.597449 43.367817 -14.597449 32.597418 C -14.597449 21.827018 -5.865732 13.102995 4.896974 13.102995 C 15.667373 13.102995 24.39909 21.827018 24.39909 32.597418 Z M 24.39909 32.597418 " transform="matrix(0.507757,0,0,0.507757,22.59165,7.362482)"/>
<path style="fill:none;stroke-width:2;stroke-linecap:round;stroke-linejoin:round;stroke:rgb(37.254902%,45.098039%,100%);stroke-opacity:1;stroke-miterlimit:4;" d="M 283.002399 110.398155 C 279.50202 110.398155 276.801727 107.497841 276.801727 103.997461 C 276.701716 100.597092 279.402009 97.696777 282.802378 97.596766 C 286.202747 97.496756 289.103061 100.197049 289.203072 103.597418 C 289.203072 103.697428 289.203072 103.797439 289.203072 103.997461 C 289.203072 107.497841 286.402768 110.298145 283.002399 110.398155 Z M 283.002399 110.398155 C 276.801727 110.398155 274.201444 113.898535 274.201444 113.898535 C 272.701282 111.398264 271.001097 108.197917 265.40049 108.197917 M 283.002399 110.398155 C 289.203072 110.398155 293.303517 114.598611 295.403745 118.899078 M 265.40049 108.297928 C 263.10024 108.197917 261.200034 106.297711 261.300045 103.89745 C 261.400056 101.597201 263.200251 99.797005 265.40049 99.797005 C 267.700739 99.897016 269.600945 101.797222 269.500934 104.197483 C 269.500934 106.397721 267.700739 108.197917 265.40049 108.297928 Z M 265.40049 108.297928 C 262.300153 108.297928 260.199925 109.398047 258.199708 112.498383 C 256.09948 115.69873 257.1996 119.899186 262.300153 119.899186 L 270.601054 119.899186 C 270.601054 121.299338 270.601054 125.199761 274.701499 125.199761 L 293.303517 125.199761 " transform="matrix(0.507757,0,0,0.507757,-129.227814,-28.688293)"/>
<path style="fill:none;stroke-width:2;stroke-linecap:round;stroke-linejoin:round;stroke:rgb(37.254902%,45.098039%,100%);stroke-opacity:1;stroke-miterlimit:4;" d="M 302.396811 91.303776 L 302.396811 66.901128 L 298.296366 66.901128 L 298.296366 95.396528 L 321.698905 95.396528 L 321.698905 68.901345 L 311.497799 68.901345 L 311.497799 58.700239 L 289.103061 58.700239 L 289.103061 95.396528 L 285.002616 95.396528 " transform="matrix(0.507757,0,0,0.507757,-129.227814,-28.688293)"/>
</g>
</svg>
